<svg width="502" height="202" viewBox="0 0 502 202" fill="none" xmlns="http://www.w3.org/2000/svg">
<path d="M12.2727 161.273V130.273L90 7.81818H116.727V50.7273H100.909L51.9091 128.273V129.727H162.364V161.273H12.2727ZM101.636 194V151.818L102.364 138.091V7.81818H139.273V194H101.636Z" fill="white"/>
<path d="M351.36 161.273V130.273L429.087 7.81818H455.814V50.7273H439.996L390.996 128.273V129.727H501.45V161.273H351.36ZM440.723 194V151.818L441.45 138.091V7.81818H478.36V194H440.723Z" fill="white"/>
<path d="M339.734 36.0926C326.157 23.1563 308.858 14.3465 290.025 10.7774C271.193 7.20823 251.672 9.04004 233.932 16.0411C216.192 23.0423 201.03 34.8982 190.362 50.1098C179.694 65.3213 174 83.2052 174 101.5C174 119.795 179.694 137.679 190.362 152.89C201.03 168.102 216.192 179.958 233.932 186.959C251.672 193.96 271.193 195.792 290.025 192.223C308.858 188.654 326.157 179.844 339.734 166.907L271.085 101.5L339.734 36.0926Z" fill="#FFDF00"/>
</svg>
