<svg width="565" height="522" viewBox="0 0 565 522" fill="none" xmlns="http://www.w3.org/2000/svg">
<path d="M312 52.1999C423.725 52.1999 514.4 145.742 514.4 261L514.4 469.8L109.6 469.8L109.6 261C109.6 145.742 200.275 52.1999 312 52.1999Z" fill="#163BF3"/>
<ellipse cx="61" cy="84.2862" rx="61" ry="84.2862" transform="matrix(1 0 0 -1 327 301.707)" fill="white"/>
<ellipse cx="24.4" cy="28.0954" rx="24.4" ry="28.0954" transform="matrix(1 0 0 -1 363.6 273.611)" fill="#163BF3"/>
<ellipse cx="60.5" cy="84.2862" rx="60.5" ry="84.2862" transform="matrix(1 0 0 -1 179 301.707)" fill="white"/>
<ellipse cx="24.2" cy="28.0954" rx="24.2" ry="28.0954" transform="matrix(1 0 0 -1 215.3 273.611)" fill="#163BF3"/>
<path d="M83.0909 316.975C70.2424 316.975 58.7879 314.611 48.7273 309.884C38.7273 305.157 30.7879 298.642 24.9091 290.339C19.0303 282.036 15.9697 272.52 15.7273 261.793H53.9091C54.3333 269.005 57.3636 274.854 63 279.339C68.6364 283.823 75.3333 286.066 83.0909 286.066C89.2727 286.066 94.7273 284.702 99.4546 281.975C104.242 279.187 107.97 275.339 110.636 270.429C113.364 265.46 114.727 259.763 114.727 253.339C114.727 246.793 113.333 241.035 110.545 236.066C107.818 231.096 104.03 227.217 99.1818 224.429C94.3333 221.642 88.7879 220.217 82.5455 220.157C77.0909 220.157 71.7879 221.278 66.6364 223.52C61.5455 225.763 57.5758 228.823 54.7273 232.702L19.7273 226.429L28.5455 128.248H142.364V160.429H61L56.1818 207.066H57.2727C60.5455 202.46 65.4849 198.642 72.0909 195.611C78.697 192.581 86.0909 191.066 94.2727 191.066C105.485 191.066 115.485 193.702 124.273 198.975C133.061 204.248 140 211.49 145.091 220.702C150.182 229.854 152.697 240.399 152.636 252.339C152.697 264.884 149.788 276.036 143.909 285.793C138.091 295.49 129.939 303.126 119.455 308.702C109.03 314.217 96.9091 316.975 83.0909 316.975Z" fill="white"/>
</svg>
