<svg width="56" height="62" viewBox="0 0 56 62" fill="none" xmlns="http://www.w3.org/2000/svg">
<path d="M28 6.19995C40.3648 6.19995 50.4 17.3103 50.4 31L50.4 55.7999L5.6 55.7999L5.6 30.9999C5.6 17.3103 15.6352 6.19995 28 6.19995Z" fill="#163BF3"/>
<ellipse cx="8.14546" cy="10.85" rx="8.14546" ry="10.85" transform="matrix(1 0 0 -1 10.2667 35.054)" fill="white"/>
<ellipse cx="3.25818" cy="3.61667" rx="3.25818" ry="3.61667" transform="matrix(1 0 0 -1 15.1539 31.4373)" fill="#163BF3"/>
<ellipse cx="8.14546" cy="10.85" rx="8.14546" ry="10.85" transform="matrix(1 0 0 -1 29.5273 35.1333)" fill="white"/>
<ellipse cx="3.25818" cy="3.61667" rx="3.25818" ry="3.61667" transform="matrix(1 0 0 -1 34.4145 31.5166)" fill="#163BF3"/>
<ellipse cx="8.14546" cy="10.85" rx="8.14546" ry="10.85" transform="matrix(1 0 0 -1 28.9333 35.054)" fill="white"/>
<ellipse cx="3.25818" cy="3.61667" rx="3.25818" ry="3.61667" transform="matrix(1 0 0 -1 33.8206 31.4373)" fill="#163BF3"/>
</svg>
