<svg width="20" height="20" viewBox="0 0 20 20" fill="none" xmlns="http://www.w3.org/2000/svg">
<g clip-path="url(#clip0_34486_110)">
<path d="M10 2C14.416 2 18 5.584 18 10L18 18L2 18L2 10C2 5.584 5.584 2 10 2Z" fill="#163BF3"/>
</g>
<ellipse cx="2.5" cy="3" rx="2.5" ry="3" transform="matrix(-1 0 0 1 10 5)" fill="white"/>
<ellipse cx="1" cy="1.5" rx="1" ry="1.5" transform="matrix(-1 0 0 1 10 7)" fill="#163BF3"/>
<ellipse cx="2.5" cy="3" rx="2.5" ry="3" transform="matrix(-1 0 0 1 16 5)" fill="white"/>
<ellipse cx="1" cy="1.5" rx="1" ry="1.5" transform="matrix(-1 0 0 1 16 7)" fill="#163BF3"/>
<defs>
<clipPath id="clip0_34486_110">
<rect width="20" height="20" fill="white"/>
</clipPath>
</defs>
</svg>
