<svg width="100" height="100" viewBox="0 0 100 100" fill="none" xmlns="http://www.w3.org/2000/svg">
<path d="M50 10C72.08 10 90 27.92 90 50L90 90L10 90L10 50C10 27.92 27.92 10 50 10Z" fill="#A9D54D"/>
<ellipse cx="12.0553" cy="16.1468" rx="12.0553" ry="16.1468" transform="matrix(1 0 0 -1 52.9645 57.7981)" fill="white"/>
<ellipse cx="4.82213" cy="5.38226" rx="4.82213" ry="5.38226" transform="matrix(1 0 0 -1 60.1976 52.4158)" fill="#163BF3"/>
<ellipse cx="11.9565" cy="16.1468" rx="11.9565" ry="16.1468" transform="matrix(1 0 0 -1 23.7155 57.7981)" fill="white"/>
<ellipse cx="4.78261" cy="5.38226" rx="4.78261" ry="5.38226" transform="matrix(1 0 0 -1 30.8894 52.4158)" fill="#163BF3"/>
</svg>
