<svg width="694" height="726" viewBox="0 0 694 726" fill="none" xmlns="http://www.w3.org/2000/svg">
<path d="M477.089 224.329H482.916V226.178H479.679L481.621 228.027L480.974 221.864V221.248L481.621 220.631L479.031 223.096" stroke="#163BF3" stroke-width="2"/>
<path d="M477.737 245.283H479.032M482.269 245.283H480.974M480.974 245.283V242.201L481.622 240.969L479.032 245.283M480.974 245.283H479.032M481.622 247.748L480.327 246.515" stroke="#163BF3" stroke-width="2"/>
<path d="M504.93 644.638C506.225 644.021 505.577 644.637 503.635 642.789C502.081 641.31 502.124 643.816 502.34 645.254C502.772 645.254 503.894 645.131 504.93 644.638Z" stroke="#163BF3" stroke-width="2"/>
<path d="M506.225 645.87H506.872C506.354 645.87 506.225 645.87 505.577 645.87H505.254H504.93" stroke="#163BF3" stroke-width="2"/>
<path d="M558.021 537.403V513.984" stroke="#163BF3" stroke-width="2"/>
<path d="M576.798 527.543L578.093 528.775C577.877 528.775 577.575 528.899 578.093 529.392C579.129 529.392 579.819 528.57 580.035 528.159H580.682C581.33 527.954 582.495 527.543 581.977 527.543C581.33 527.543 580.035 527.543 579.388 527.543C578.74 527.543 573.56 525.805 576.15 527.543C578.222 528.933 579.172 530.176 579.388 530.624" stroke="#163BF3" stroke-width="2"/>
<path d="M482.269 645.87C482.916 645.87 482.916 645.254 483.564 645.254C484.082 645.254 484.643 645.254 484.859 645.254V644.638L485.506 645.254L483.564 644.021L482.269 645.254C482.485 645.459 482.787 645.87 482.269 645.87ZM482.269 645.87C481.837 645.87 481.103 645.87 481.621 645.87M482.269 645.87C480.715 644.884 485.506 645.87 488.096 646.486M481.621 645.87C481.405 645.459 481.103 644.761 481.621 645.254C479.55 645.254 480.758 645.665 481.621 645.87Z" stroke="#163BF3" stroke-width="2"/>
<path d="M209.688 222.48C209.688 222.835 209.688 223.167 209.688 223.476M209.688 223.476C209.688 227.023 209.688 227.599 209.688 227.41L212.925 224.329L209.688 223.476Z" stroke="#163BF3" stroke-width="2"/>
<path d="M209.688 247.132L210.983 241.585L208.393 240.969L213.573 245.283L208.393 247.748" stroke="#163BF3" stroke-width="2"/>
<path d="M332.058 175.026L338.533 177.491" stroke="#163BF3" stroke-width="2"/>
<path d="M335.295 179.34L338.533 174.41L332.058 175.642L337.238 178.107L339.828 174.41" stroke="#163BF3" stroke-width="2"/>
<path d="M351.482 175.026L357.956 176.258L359.899 175.026L355.366 178.107L354.719 176.875L360.546 175.026" stroke="#163BF3" stroke-width="2"/>
<rect x="60.772" y="154.072" width="75.1054" height="19.7212" rx="9.86061" stroke="#163BF3" stroke-width="2"/>
<rect x="554.137" y="154.072" width="75.1054" height="19.7212" rx="9.86061" stroke="#163BF3" stroke-width="2"/>
<rect x="407.811" y="224.329" width="75.1054" height="20.9538" rx="10.4769" stroke="#163BF3" stroke-width="2"/>
<rect x="208.393" y="224.329" width="75.1054" height="19.7212" rx="9.86061" stroke="#163BF3" stroke-width="2"/>
<rect width="161.95" height="21.567" rx="10.7835" transform="matrix(0.00226989 -0.999997 0.999998 0.00205659 186.379 314.789)" stroke="#163BF3" stroke-width="2"/>
<rect width="71.3278" height="21.567" rx="10.7835" transform="matrix(0.00226989 -0.999997 0.999998 0.00205659 335.272 246.195)" stroke="#163BF3" stroke-width="2"/>
<rect width="91.1775" height="21.567" rx="10.7835" transform="matrix(0.00226989 -0.999997 0.999998 0.00205659 186.334 456.02)" stroke="#163BF3" stroke-width="2"/>
<rect width="91.1775" height="21.567" rx="10.7835" transform="matrix(0.00226989 -0.999997 0.999998 0.00205659 482.916 456.02)" stroke="#163BF3" stroke-width="2"/>
<rect width="70.597" height="21.567" rx="10.7835" transform="matrix(0.00226989 -0.999997 0.999998 0.00205659 482.916 647.069)" stroke="#163BF3" stroke-width="2"/>
<rect width="70.597" height="21.567" rx="10.7835" transform="matrix(0.00226989 -0.999997 0.999998 0.00205659 558.021 596.907)" stroke="#163BF3" stroke-width="2"/>
<path fill-rule="evenodd" clip-rule="evenodd" d="M335.245 0H333.245L333.025 95.7118C333.01 102.22 338.274 107.506 344.781 107.519C351.289 107.532 356.577 102.268 356.592 95.7597L356.812 0H354.812L354.592 95.7557C354.579 101.159 350.189 105.53 344.786 105.519C339.383 105.508 335.013 101.119 335.025 95.7159L335.245 0Z" fill="#163BF3"/>
<rect width="161.95" height="21.9811" rx="10.9906" transform="matrix(0.00226989 -0.999997 0.999998 0.00205659 482.916 314.789)" stroke="#163BF3" stroke-width="2"/>
<rect x="185.084" y="506.589" width="98.414" height="19.7212" rx="9.86061" stroke="#163BF3" stroke-width="2"/>
<path fill-rule="evenodd" clip-rule="evenodd" d="M3.09152 597.567H50.9112C56.9094 597.567 61.7719 592.705 61.7719 586.706C61.7719 580.708 56.9094 575.846 50.9113 575.846H1.54028L4.61698 577.846H50.9113C55.8048 577.846 59.7719 581.813 59.7719 586.706C59.7719 591.6 55.8048 595.567 50.9112 595.567H4.58568L3.09152 597.567Z" fill="#163BF3"/>
<rect x="407.811" y="506.589" width="98.414" height="19.7212" rx="9.86061" stroke="#163BF3" stroke-width="2"/>
<rect x="558.021" y="506.589" width="71.2207" height="19.7212" rx="9.86061" stroke="#163BF3" stroke-width="2"/>
<rect x="407.811" y="647.103" width="221.432" height="19.7212" rx="9.86061" stroke="#163BF3" stroke-width="2"/>
<rect x="257.6" y="154.072" width="173.519" height="19.7212" rx="9.86061" stroke="#163BF3" stroke-width="2"/>
<path d="M472.529 647.062L478.354 646.069L480.301 645.048L481.602 644.023L484.211 640.94" stroke="#163BF3" stroke-width="2"/>
<path d="M515.289 647.103L509.462 645.87L507.52 644.637L506.225 643.405L503.635 639.707" stroke="#163BF3" stroke-width="2"/>
<path fill-rule="evenodd" clip-rule="evenodd" d="M15.7959 366.843H123.878C129.401 366.843 133.878 371.32 133.878 376.843V447.751C133.878 453.274 129.401 457.751 123.878 457.751H15.7959C10.273 457.751 5.7959 453.274 5.7959 447.751V447.425H3.7959V447.751C3.7959 454.379 9.16848 459.751 15.7959 459.751H123.878C130.505 459.751 135.878 454.379 135.878 447.751V376.843C135.878 370.215 130.505 364.843 123.878 364.843H15.7959C9.16848 364.843 3.7959 370.215 3.7959 376.843V377.169H5.7959V376.843C5.7959 371.32 10.273 366.843 15.7959 366.843Z" fill="#163BF3"/>
<path fill-rule="evenodd" clip-rule="evenodd" d="M15.7959 225.096H123.878C129.401 225.096 133.878 229.574 133.878 235.096V306.005C133.878 311.528 129.401 316.005 123.878 316.005H15.7959C10.273 316.005 5.7959 311.528 5.7959 306.005V305.679H3.7959V306.005C3.7959 312.632 9.16848 318.005 15.7959 318.005H123.878C130.505 318.005 135.878 312.632 135.878 306.005V235.096C135.878 228.469 130.505 223.096 123.878 223.096H15.7959C9.89866 223.096 4.99499 227.35 3.98604 232.957H6.02526C7.0049 228.462 11.0073 225.096 15.7959 225.096Z" fill="#163BF3"/>
<path fill-rule="evenodd" clip-rule="evenodd" d="M570.021 363.145H678.103C683.626 363.145 688.103 367.622 688.103 373.145V375.936H690.103V373.145C690.103 366.518 684.731 361.145 678.103 361.145H570.021C563.394 361.145 558.021 366.518 558.021 373.145V444.053C558.021 450.681 563.394 456.053 570.021 456.053H678.103C683.099 456.053 687.382 453 689.188 448.658H686.983C685.317 451.864 681.966 454.053 678.103 454.053H570.021C564.499 454.053 560.021 449.576 560.021 444.053V373.145C560.021 367.622 564.499 363.145 570.021 363.145Z" fill="#163BF3"/>
<path fill-rule="evenodd" clip-rule="evenodd" d="M570.021 225.096H678.103C683.321 225.096 687.605 229.092 688.063 234.19H690.07C689.606 227.986 684.426 223.096 678.103 223.096H570.021C563.394 223.096 558.021 228.469 558.021 235.096V306.005C558.021 312.632 563.394 318.005 570.021 318.005H678.103C684.426 318.005 689.606 313.115 690.07 306.912H688.063C687.605 312.01 683.321 316.005 678.103 316.005H570.021C564.499 316.005 560.021 311.528 560.021 306.005V235.096C560.021 229.574 564.499 225.096 570.021 225.096Z" fill="#163BF3"/>
<path fill-rule="evenodd" clip-rule="evenodd" d="M2.79541 13.2326C2.79541 6.05291 8.61571 0.232605 15.7954 0.232605H678.099C685.278 0.232605 691.099 6.0529 691.099 13.2326V234.19H689.099V13.2326C689.099 7.15748 684.174 2.2326 678.099 2.2326H15.7954C9.72028 2.2326 4.79541 7.15747 4.79541 13.2326V232.957H2.79541V13.2326ZM689.099 308.144V374.703H691.099V308.144H689.099ZM689.099 448.658H691.099V712.755C691.099 719.935 685.278 725.755 678.099 725.755H15.7954C8.61574 725.755 2.79541 719.935 2.79541 712.755V448.658H4.79541V712.755C4.79541 718.83 9.7203 723.755 15.7954 723.755H678.099C684.174 723.755 689.099 718.83 689.099 712.755V448.658ZM2.79541 306.912V377.168H4.79541V306.912H2.79541Z" fill="#163BF3"/>
<path fill-rule="evenodd" clip-rule="evenodd" d="M1.53049 307.315C2.76326 307.702 4.07524 307.912 5.43606 307.912H113.518C120.698 307.912 126.518 302.091 126.518 294.912V243.724C126.518 236.545 120.698 230.724 113.518 230.724H5.43606C3.49535 230.724 1.65396 231.15 0 231.912L3.52804 232.889C4.14775 232.781 4.78531 232.724 5.43606 232.724H113.518C119.593 232.724 124.518 237.649 124.518 243.724V294.912C124.518 300.987 119.593 305.912 113.518 305.912H5.43606C4.84892 305.912 4.27253 305.866 3.71029 305.777L1.53049 307.315Z" fill="#163BF3"/>
<path fill-rule="evenodd" clip-rule="evenodd" d="M1.61826 449.088C2.82532 449.459 4.10717 449.658 5.43555 449.658H113.517C120.697 449.658 126.517 443.838 126.517 436.658V387.936C126.517 380.756 120.697 374.936 113.517 374.936H5.43556C3.89251 374.936 2.41225 375.205 1.03906 375.698L10.9292 376.936H113.517C119.593 376.936 124.517 381.861 124.517 387.936V436.658C124.517 442.733 119.593 447.658 113.517 447.658H5.43555C4.83435 447.658 4.24441 447.61 3.66939 447.517L1.61826 449.088Z" fill="#163BF3"/>
<path fill-rule="evenodd" clip-rule="evenodd" d="M691.833 447.984C690.758 448.272 689.629 448.425 688.463 448.425H580.381C573.202 448.425 567.381 442.605 567.381 435.425V384.238C567.381 377.059 573.202 371.238 580.381 371.238H688.463C690.137 371.238 691.737 371.554 693.206 372.13L689.941 373.337C689.458 373.272 688.965 373.238 688.463 373.238H580.381C574.306 373.238 569.381 378.163 569.381 384.238V435.425C569.381 441.501 574.306 446.425 580.381 446.425H688.463C688.529 446.425 688.595 446.425 688.66 446.424L691.833 447.984Z" fill="#163BF3"/>
<path fill-rule="evenodd" clip-rule="evenodd" d="M693.365 308.188C691.852 308.805 690.197 309.144 688.463 309.144H580.381C573.202 309.144 567.381 303.324 567.381 296.144V244.957C567.381 237.777 573.202 231.957 580.381 231.957H688.463C689.821 231.957 691.13 232.165 692.36 232.551L689.525 234.008C689.176 233.974 688.821 233.957 688.463 233.957H580.381C574.306 233.957 569.381 238.882 569.381 244.957V296.144C569.381 302.219 574.306 307.144 580.381 307.144H688.463C689.16 307.144 689.842 307.079 690.503 306.955L693.365 308.188Z" fill="#163BF3"/>
<path fill-rule="evenodd" clip-rule="evenodd" d="M322.345 302.214H271.844H270.844V303.214V378.401V379.401H271.844H423.349H424.349V378.401V303.214V302.214H423.349H372.847V304.214H422.349V377.401H272.844V304.214H322.345V302.214Z" fill="#163BF3"/>
<path fill-rule="evenodd" clip-rule="evenodd" d="M322.346 293.586H261.484H260.484V294.586V387.029V388.029H261.484H435.004H436.004V387.029V294.586V293.586H435.004H372.848V295.586H434.004V386.029H262.484V295.586H322.346V293.586Z" fill="#163BF3"/>
<line x1="322.051" y1="293.353" x2="322.051" y2="304.446" stroke="#163BF3" stroke-width="2"/>
<line x1="373.848" y1="293.353" x2="373.848" y2="304.446" stroke="#163BF3" stroke-width="2"/>
<rect x="60.772" y="59.1637" width="75.1054" height="46.8379" rx="12" stroke="#163BF3" stroke-width="2"/>
<rect x="554.137" y="59.1636" width="75.1054" height="46.8379" rx="12" stroke="#163BF3" stroke-width="2"/>
<rect x="185.084" y="59.1637" width="98.414" height="46.8379" rx="12" stroke="#163BF3" stroke-width="2"/>
<rect x="407.811" y="59.1637" width="98.414" height="46.8379" rx="12" stroke="#163BF3" stroke-width="2"/>
<path fill-rule="evenodd" clip-rule="evenodd" d="M691.399 577.846H642.96C638.067 577.846 634.1 581.813 634.1 586.706C634.1 591.6 638.067 595.567 642.96 595.567H691.399V597.567H642.96C636.962 597.567 632.1 592.705 632.1 586.706C632.1 580.708 636.962 575.846 642.96 575.846H691.399V577.846Z" fill="#163BF3"/>
<path d="M207.745 220.015L210.335 221.864L212.925 223.096L219.4 224.329" stroke="#163BF3" stroke-width="2"/>
<path d="M471.262 224.329L477.089 223.096L479.031 221.864L480.326 220.631L482.916 216.934" stroke="#163BF3" stroke-width="2"/>
<path d="M335.943 182.421L334.403 179.414L332.971 177.659L331.587 176.518L328.173 173.793" stroke="#163BF3" stroke-width="2"/>
<path d="M356.014 181.189L357.606 178.778L359.25 177.295L360.928 176.266L365.078 173.793" stroke="#163BF3" stroke-width="2"/>
<path d="M332.058 457.286L338.533 459.751" stroke="#163BF3" stroke-width="2"/>
<path d="M335.295 461.6L338.533 456.67L332.058 457.902L337.238 460.367L339.828 456.67" stroke="#163BF3" stroke-width="2"/>
<path d="M351.482 457.286L357.956 458.518L359.899 457.286L355.366 460.367L354.719 459.135L360.546 457.286" stroke="#163BF3" stroke-width="2"/>
<rect width="71.3278" height="21.567" rx="10.7835" transform="matrix(0.00226989 -0.999997 0.999998 0.00205659 335.272 528.455)" stroke="#163BF3" stroke-width="2"/>
<rect x="257.6" y="436.332" width="173.519" height="19.7212" rx="9.86061" stroke="#163BF3" stroke-width="2"/>
<path d="M335.943 464.681L334.403 461.674L332.971 459.919L331.587 458.778L328.173 456.053" stroke="#163BF3" stroke-width="2"/>
<path d="M356.014 463.449L357.606 461.038L359.25 459.555L360.928 458.526L365.078 456.053" stroke="#163BF3" stroke-width="2"/>
<path d="M332.058 597.8L338.533 600.265" stroke="#163BF3" stroke-width="2"/>
<path d="M335.295 602.114L338.533 597.183L332.058 598.416L337.238 600.881L339.828 597.183" stroke="#163BF3" stroke-width="2"/>
<path d="M351.482 597.8L357.956 599.032L359.899 597.8L355.366 600.881L354.719 599.648L360.546 597.8" stroke="#163BF3" stroke-width="2"/>
<rect width="71.3278" height="21.567" rx="10.7835" transform="matrix(0.00226989 -0.999997 0.999998 0.00205659 335.272 668.969)" stroke="#163BF3" stroke-width="2"/>
<rect x="257.6" y="576.846" width="173.519" height="19.7212" rx="9.86061" stroke="#163BF3" stroke-width="2"/>
<path d="M335.943 605.195L334.403 602.188L332.971 600.432L331.587 599.292L328.173 596.567" stroke="#163BF3" stroke-width="2"/>
<path d="M356.014 603.963L357.606 601.552L359.25 600.068L360.928 599.04L365.078 596.567" stroke="#163BF3" stroke-width="2"/>
<path d="M472.557 245.283L477.737 246.31L479.463 247.337L480.614 248.364L482.916 251.446" stroke="#163BF3" stroke-width="2"/>
<path d="M208.393 251.446L210.407 248.276L212.422 246.163L217.458 244.05" stroke="#163BF3" stroke-width="2"/>
<path d="M578.74 533.706L580.755 530.536L582.769 528.423L587.805 526.31" stroke="#163BF3" stroke-width="2"/>
<path d="M559.964 523.845C559.964 524.059 559.964 524.264 559.964 524.461M559.964 524.461C559.964 528.348 559.964 528.971 559.964 528.775L559.317 529.392L561.906 526.926V526.31L561.259 525.694V525.078C561.259 525.078 561 524.954 559.964 524.461Z" stroke="#163BF3" stroke-width="2"/>
<path d="M559.317 523.846V523.229" stroke="#163BF3" stroke-width="2"/>
<path d="M559.964 530.624H559.317V529.392L563.201 526.31" stroke="#163BF3" stroke-width="2"/>
<path d="M143.647 537.403V513.984" stroke="#163BF3" stroke-width="2"/>
<path d="M124.192 527.298L122.936 528.875C123.145 528.875 123.438 529.033 122.936 529.664C121.931 529.664 121.262 528.612 121.052 528.087H120.424C119.797 527.824 118.666 527.298 119.169 527.298C119.797 527.298 121.052 527.298 121.68 527.298C122.308 527.298 127.331 525.075 124.82 527.298C122.81 529.076 121.89 530.667 121.68 531.24" stroke="#163BF3" stroke-width="2"/>
<rect width="70.597" height="22.3512" rx="11.1756" transform="matrix(-0.00251752 -0.999997 -0.999998 0.0018543 143.647 596.907)" stroke="#163BF3" stroke-width="2"/>
<rect width="73.8105" height="19.7212" rx="9.86061" transform="matrix(-1 0 0 1 143.647 506.589)" stroke="#163BF3" stroke-width="2"/>
<path d="M121.633 533.706L119.619 530.536L117.605 528.423L112.569 526.31" stroke="#163BF3" stroke-width="2"/>
<path d="M141.704 523.845C141.704 524.083 141.704 524.311 141.704 524.53M141.704 524.53C141.704 528.848 141.704 529.54 141.704 529.323L142.352 530.008L139.762 527.269V526.584L140.409 525.899V525.215C140.409 525.215 140.668 525.078 141.704 524.53Z" stroke="#163BF3" stroke-width="2"/>
<path d="M141.704 531.24H142.352V529.832L138.467 526.31" stroke="#163BF3" stroke-width="2"/>
<path d="M506.225 646.486C507.261 645.5 507.951 645.665 508.167 645.87" stroke="#163BF3" stroke-width="2"/>
<path d="M214.895 645.011C216.19 644.395 215.543 645.011 213.6 643.162C212.047 641.683 212.09 644.189 212.306 645.627C212.737 645.627 213.859 645.504 214.895 645.011Z" stroke="#163BF3" stroke-width="2"/>
<path d="M216.162 645.87H216.81C216.292 645.87 216.162 645.87 215.515 645.87H215.191H214.867" stroke="#163BF3" stroke-width="2"/>
<path d="M192.234 646.243C192.881 646.243 192.881 645.627 193.529 645.627C194.047 645.627 194.608 645.627 194.824 645.627V645.011L195.471 645.627L193.529 644.395L192.234 645.627C192.45 645.833 192.752 646.243 192.234 646.243ZM192.234 646.243C191.802 646.243 191.068 646.243 191.587 646.243M192.234 646.243C190.68 645.257 195.471 646.243 198.061 646.86M191.587 646.243C191.371 645.833 191.068 645.134 191.587 645.627C189.515 645.627 190.723 646.038 191.587 646.243Z" stroke="#163BF3" stroke-width="2"/>
<rect width="70.597" height="21.567" rx="10.7835" transform="matrix(0.00226989 -0.999997 0.999998 0.00205659 192.882 647.443)" stroke="#163BF3" stroke-width="2"/>
<rect x="64.6565" y="647.476" width="221.432" height="19.7212" rx="9.86061" stroke="#163BF3" stroke-width="2"/>
<path d="M182.494 647.436L188.32 646.442L190.267 645.422L191.567 644.397L194.176 641.313" stroke="#163BF3" stroke-width="2"/>
<path d="M225.255 647.476L219.428 646.244L217.485 645.011L216.19 643.778L213.601 640.081" stroke="#163BF3" stroke-width="2"/>
<path d="M216.163 646.642C217.199 645.656 217.889 645.821 218.105 646.026" stroke="#163BF3" stroke-width="2"/>
</svg>
