<svg width="730" height="179" fill="none" xmlns="http://www.w3.org/2000/svg"><path d="m67 44.8 1.5-.2c12.6-2 23.2-1.2 31.2 2.2A26.7 26.7 0 0 1 116 64.6l.2.7c.4 1.7.5 3.4.5 5-.1 1.8-.5 3.5-1 5.2A30.9 30.9 0 0 1 92 95l-9.8 2 6.4 24.7.5 2-2.4.3a1821.4 1821.4 0 0 0-47.3 7.6l-2.4.4-.5-1.8-20.8-74.4-.5-1.9 2.3-.4 6.6-1.2L31 51c12-2.2 24-4.2 36-6.2Zm197.7 17.9 43.7 14.5 2.3.8-1 1.8a39.8 39.8 0 0 1-9.3 11.2 59.3 59.3 0 0 1-38.8 12.3c-15 0-28.7-4.8-38.5-12.4-5.1-4-9.1-8.6-11.9-13.8A34.2 34.2 0 0 1 207 61c0-11.7 6.2-22.2 16-30 5.1-3.9 11.1-7 17.7-9.1a67 67 0 0 1 50.7 3.6 50.3 50.3 0 0 1 16 12.3l1.4 1.6-2 1-42.1 22.4ZM151.1 36.9l67 68.6 2.5 2.7-4.3.4a2205.2 2205.2 0 0 0-102 11.6l-4.1.6 1.3-3 35.3-80.4 1.5-3.4 2.8 2.9Z" fill="#000"/><path fill-rule="evenodd" clip-rule="evenodd" d="m259.6 63 47.8 16c-8.1 14.7-25 22.4-45.8 22.4-28.7 0-52-18.2-52-40.5s23.3-40.4 52-40.4c17.5 0 34.2 7 43.8 18.3L259.6 63ZM149 38l67 68.7c-34.3 3-68.3 7-102.2 11.6L149 38Zm-81.6 8.7c25.2-4.3 42 2.7 46.1 19 2.8 10.7-6.8 24.2-22 27.3l-12.2 2.5 7 26.5c-16.5 2.5-32.3 5-47.4 7.6L18.2 55.3c16.4-3 32.8-6 49.3-8.6Z" fill="red"/><path d="m85.2 49.4 2.6-.5a55 55 0 0 1 30.5 2.8 28 28 0 0 1 16.3 19.7c.5 1.7.6 3.5.5 5.3a22 22 0 0 1-1 5.5 31.4 31.4 0 0 1-23.5 20.4l-10 2.1 6.5 26.6.5 1.8-2.4.4a2607.3 2607.3 0 0 0-47.6 7.9l-2.4.4-.6-2-21-79.3-.4-1.8 2.3-.4a2803.5 2803.5 0 0 1 49.7-9ZM281 70.8l40 17 2 .8-.9 1.6-.3.5a35.3 35.3 0 0 1-9.4 10.7 62.2 62.2 0 0 1-38.4 10.7h-.7a67 67 0 0 1-23-4.3c-17.6-6.8-29.5-20.8-29.5-37.3V70a38 38 0 0 1 14.8-29c9-7.4 21.8-12 36.3-12h.8a44.2 44.2 0 0 1 15.4 2.8 68 68 0 0 1 27.8 20.6l1.4 1.6-2.2 1-34 15.8Zm-115.6-33 73.2 76.2 2.5 2.6-4.2.4a2248.3 2248.3 0 0 0-111.7 13.5l-4.1.6 1.3-3L161 38.2l1.5-3.5 2.9 3Z" fill="#000"/><path fill-rule="evenodd" clip-rule="evenodd" d="M276 70.8 320 89.4c-8 14.5-25.4 21-45.9 20.8-28.3-.2-50.7-17.7-50.7-39.7 0-22 21-39.8 49.4-39.6 17.2 0 31.7 11.2 41.1 22.5l-37.7 17.4ZM163.5 39l73.2 76.2c-37.4 3.6-74.7 8.1-111.8 13.5L163.4 39ZM85.7 51.2c25.4-4.4 42.3 3.2 46.5 20.5 2.8 11.4-6.9 25.8-22.3 29l-12.1 2.6 6.9 28.3c-16 2.5-31.8 5-47.6 7.9L36 60c16.5-3.1 33-6 49.6-8.9Z" fill="#3369F3"/><path d="m561 43.6 29.4 82.7 1.2 3.2-4.2-.9A1618.8 1618.8 0 0 0 485.6 112l-4.3-.6 2.8-2.6 72.7-66 3-2.7 1.3 3.5Zm61.1 7.9 33 51 15-41.4.6-1.9 2.4.5 3.4.8 4.4 1a6810 6810 0 0 1 26.1 5.9l2.4.5-.7 1.8-27.7 74.1-.7 1.8-2.4-.5-20.7-4.5c-19.7-4.2-39.5-8-59.4-11.5l-2.5-.4.6-2 26.2-75.2ZM390.4 22.9l44.8 45.2 54.3-35.6-9.8 73.5-.3 2-2.5-.3a2516.2 2516.2 0 0 0-94.5-7.4l-2.6-.1.3-2 10.3-75.3Z" fill="#000"/><path fill-rule="evenodd" clip-rule="evenodd" d="m558.7 44 29.4 82.8c-32-6.3-66.5-12-102-16.7l72.6-66ZM392.3 28l42.5 42.9 51.9-34-9.5 68.9c-32.8-3.2-63.6-5.7-94.6-7.4l9.7-70.5Zm230.5 29 33 50.8 16.6-46.2 33.9 7.6-27.7 74c-26.5-6-53.3-11.2-80.3-16L622.8 57Z" fill="red"/><path d="m637.5 55 32.3 51.9 11.7-30 .7-1.8 2.4.6 3.3.8 4.2 1 25.4 6.5 2.2.6-.6 1.8-26.9 73.1-.7 2-2.4-.7a1502.5 1502.5 0 0 0-77.8-17.7l-2.4-.5v-.1l-3.2-.7A1742.6 1742.6 0 0 0 494.3 123l-2.6-.4-2.6-.3c-15.7-1.9-31.4-3.6-47.1-5-15.3-1.3-30.6-2.5-46-3.5l-2.5-.2.3-2 12-90.7 45 50.6 52.9-37.2-11.8 86.3v.2l1-1 79.3-74.6 3-2.9 1.3 3.6 32 93.6.7 2 .2-.7 28-85.8Z" fill="#000"/><path fill-rule="evenodd" clip-rule="evenodd" d="m638.4 60.7 32 51.4 13.4-34.6a4626 4626 0 0 1 33 8.4l-27 73.1c-25.7-6.5-51.7-12.5-77.9-17.8l26.5-80.5ZM407.7 26.4l42.8 48L500.6 39l-11 81.4c-31.8-4-63-6.4-93.3-8.5l11.4-85.5Zm166.5 20 32 93.6c-34.8-7.1-72.5-13.7-111.3-18.9l79.3-74.7Z" fill="#3369F3"/><path d="M342 61.4h38.3v19.3h-40.8V61.4h2.5Z" fill="#000"/><path fill-rule="evenodd" clip-rule="evenodd" d="M342 63.4h35.8v15.4H342V63.4Z" fill="#3369F3"/><path d="M328.8 50.9H366v18h-39.7V51h2.5Z" fill="#000"/><path fill-rule="evenodd" clip-rule="evenodd" d="M328.8 52.8h34.7V67h-34.7V52.8Z" fill="red"/><path d="m160 40.3 67 68.7 4.5 4.6-7.4.6A2162.2 2162.2 0 0 0 122 126l-7 1 2.3-5.3 35.3-80.4 2.6-5.8 4.8 5Zm116 25.9 40.7 13.5 3.8 1.3-1.6 3a41.5 41.5 0 0 1-10 12 64.8 64.8 0 0 1-41.8 14.6c-7.4 0-14.7-1.2-21.5-3.4-6.9-2.2-13-5.4-18.3-9.5-5.2-4-9.4-8.9-12.2-14.2a35.4 35.4 0 0 1 0-33.5c2.8-5.2 7-10 12.2-14.1 5.2-4 11.4-7.3 18.3-9.5a70 70 0 0 1 48.4 2 53.4 53.4 0 0 1 20.5 14.5l2.3 2.7-3.6 1.8-37.1 18.8ZM76.4 47.7l1.5-.2c13-2 24-1.1 32.4 2.4a28 28 0 0 1 17 18.7l.2.7c.5 1.8.7 3.6.6 5.4-.1 1.8-.5 3.7-1 5.4a32.5 32.5 0 0 1-24.8 20.4l-8.2 1.7 6.1 23.5.9 3.2-4.2.6a2057.4 2057.4 0 0 0-47.2 7.6l-4.2.7-.9-3.2-20.8-74.3-.9-3.2 4-.7a1993 1993 0 0 1 49.5-8.7Z" fill="#000"/><path fill-rule="evenodd" clip-rule="evenodd" d="m267.1 66.8 47.9 16c-8.2 14.7-27.1 24.5-47.9 24.5-28.7 0-52-18.2-52-40.5s23.3-40.5 52-40.5c17.5 0 34.2 7 43.8 18.4l-43.8 22.1ZM77.1 51c25.2-4.4 42 2.7 46.2 19 2.7 10.6-6.9 24.2-22.2 27.3l-12 2.5 6.9 26.5c-16.5 2.5-32.3 5-47.3 7.6L27.8 59.6c16.4-3.1 32.8-6 49.3-8.6Zm79.6-8.7 67 68.7c-34.3 3-68.4 7-102.3 11.6l35.3-80.3Z" fill="#F24E1E"/><path fill-rule="evenodd" clip-rule="evenodd" d="m267.1 66.8 47.9 16c-8.2 14.7-27.1 24.5-47.9 24.5-28.7 0-52-18.2-52-40.5s23.3-40.5 52-40.5c17.5 0 34.2 7 43.8 18.4l-43.8 22.1ZM77.1 51c25.2-4.4 42 2.7 46.2 19 2.7 10.6-6.9 24.2-22.2 27.3l-12 2.5 6.9 26.5c-16.5 2.5-32.3 5-47.3 7.6L27.8 59.6c16.4-3.1 32.8-6 49.3-8.6Zm79.6-8.7 67 68.7c-34.3 3-68.4 7-102.3 11.6l35.3-80.3Z" fill="#FFDF00"/><path d="m490.3 111.7 72.7-66 5.1-4.8 2.1 6 29.4 82.7 1.5 4 .6-1.9 26.8-78.2 32 51.6 13.1-37.4 1.2-3.3 4.2 1 23.5 6 5 1.3 4.3 1.1h.1l3.9 1-1.1 3-27 73.5-1.1 3.3-4.2-1a1548 1548 0 0 0-77.6-17.9l-4.2-.8-6-1.2A1619.6 1619.6 0 0 0 492.7 117l-5.6-.7-4.3-.4a2306.8 2306.8 0 0 0-92.1-7.7l-4.3-.3.4-3.3 10.9-82.8 45 49.2L498 31.5 487.7 113l-.2 1.2 2.8-2.5Z" fill="#000"/><path fill-rule="evenodd" clip-rule="evenodd" d="m566.2 47.8-72.7 66a1593 1593 0 0 1 102 16.7l-29.3-82.7ZM400.6 30.7l-9.5 74.2c30.3 1.8 60.3 4.4 92.3 7.8l9.3-72.5-50.6 35.7-41.5-45.2Zm229 32.2-23.8 69.6c26.2 5.4 52.2 11.3 78 17.9L710.5 77l-32.9-8.4-16.2 45.8-32-51.5Z" fill="#FFDF00"/><path fill-rule="evenodd" clip-rule="evenodd" d="M80.9 70.6c3.7 0 6.8 2.4 6.8 5.3s-3 5.3-6.8 5.3-6.9-2.4-6.9-5.3c0-3 3.1-5.3 6.9-5.3Zm31.3-3.7c.4 1 .8 2 1 3 2.8 10-4.3 18.4-24.6 21.8l-12.8 2.4 6.8 26.2c-10.1 1.5-19.7 3.2-29.2 4.8l.7 3c11.3-2 22.5-3.8 33.8-5.5L81.1 96l12.7-2.4C112.2 90 120 80 117.2 69.9c-.3-1.2-.7-2.5-1.2-3.7l-3.8.7Zm72.2 43 28.1-2.9-2.8-2.9-17.9-18.3-5.1.5 17.8 18.3-20.9 2.2.8 3.1Zm85.4-37.2L307 84.2l.3.1-.2.3c-1 1.8-2.3 3.5-3.8 5-3.9 4.1-9 7.4-14.8 9.7l-.3.1-.1-.2-2.4-2.3-.2-.3.3-.1c1.9-.7 3.7-1.5 5.5-2.4 4.3-2.2 8-5 10.5-8.2l-32.2-9.6h-.2V72.4l.4.2Zm179.5 31.6L476 107l3-23-4.4-.5-2.5 20a2552 2552 0 0 0-22.4-2.2l-.4 3.1Zm108.2 14.2 28 5.1-9-25.3-4.2-.7 7.7 21.8-21.7-3.9-.8 3Zm92.7 18.8c9.8 2.2 19.2 4.5 28.1 6.8l9.8-26.6-4.4-1-8.5 23.6-24-5.8-1 3Zm-96.8-48.5c3.7 0 6.8 2.4 6.8 5.3 0 3-3 5.3-6.8 5.3s-6.9-2.4-6.9-5.3c0-3 3.1-5.3 6.9-5.3Zm-386.6-6c3.8 0 6.9 2.5 6.9 5.4 0 3-3.1 5.3-6.9 5.3a8 8 0 0 1-4.8-1.6c-1.3-1-2-2.3-2-3.7 0-3 3-5.3 6.8-5.3Z" fill="#000"/><path d="M336.5 56.3h36v18.9h-40.2v-19h4.2Z" fill="#000"/><path fill-rule="evenodd" clip-rule="evenodd" d="M336.5 59.6h31.8v12.3h-31.8V59.6Z" fill="#FFDF00"/></svg>