<svg width="512" height="512" viewBox="0 0 512 512" fill="none" xmlns="http://www.w3.org/2000/svg">
<circle cx="256" cy="256" r="256" fill="black"/>
<mask id="mask0_35038_303" style="mask-type:alpha" maskUnits="userSpaceOnUse" x="0" y="0" width="512" height="512">
<path d="M512 256C512 397.385 397.385 512 256 512C114.615 512 0 397.385 0 256C0 114.615 114.615 0 256 0C397.385 0 512 114.615 512 256Z" fill="black"/>
</mask>
<g mask="url(#mask0_35038_303)">
<path d="M469.934 297.087C460.817 314.578 446.141 328.539 428.218 336.773C410.294 345.007 390.141 347.046 370.931 342.568C351.722 338.09 334.548 327.35 322.112 312.039C309.677 296.729 302.688 277.717 302.245 257.997C301.801 238.278 307.93 218.971 319.664 203.117C331.399 187.263 348.074 175.762 367.063 170.426C386.051 165.09 406.276 166.221 424.551 173.641C442.827 181.061 458.115 194.35 468.009 211.413L391.111 256L469.934 297.087Z" fill="#FFDF00"/>
<path d="M99.5555 97.0666C163.931 97.0666 216.178 156.322 216.178 229.333L216.178 361.6L-17.0667 361.6L-17.0667 229.333C-17.0667 156.322 35.1801 97.0666 99.5555 97.0666Z" fill="#163BF3"/>
<ellipse cx="35.148" cy="53.392" rx="35.148" ry="53.392" transform="matrix(1 0 0 -1 110.222 256.118)" fill="white"/>
<ellipse cx="14.0592" cy="17.7973" rx="14.0592" ry="17.7973" transform="matrix(1 0 0 -1 131.311 238.32)" fill="#163BF3"/>
<ellipse cx="34.8599" cy="53.392" rx="34.8599" ry="53.392" transform="matrix(1 0 0 -1 22.9219 255.12)" fill="white"/>
<ellipse cx="13.944" cy="17.7973" rx="13.944" ry="17.7973" transform="matrix(1 0 0 -1 43.8379 237.322)" fill="#163BF3"/>
</g>
</svg>
