<svg width="144" height="144" viewBox="0 0 144 144" fill="none" xmlns="http://www.w3.org/2000/svg">
<circle cx="72" cy="72" r="72" fill="black"/>
<mask id="mask0_35038_303" style="mask-type:alpha" maskUnits="userSpaceOnUse" x="0" y="0" width="144" height="144">
<path d="M144 72C144 111.765 111.765 144 72 144C32.2355 144 0 111.765 0 72C0 32.2355 32.2355 0 72 0C111.765 0 144 32.2355 144 72Z" fill="black"/>
</mask>
<g mask="url(#mask0_35038_303)">
<path d="M132.169 83.5557C129.605 88.475 125.477 92.4017 120.436 94.7175C115.395 97.0333 109.727 97.6066 104.324 96.3472C98.9218 95.0879 94.0915 92.0673 90.5941 87.7611C87.0967 83.4549 85.131 78.1078 85.0063 72.5617C84.8817 67.0156 86.6052 61.5856 89.9056 57.1267C93.206 52.6677 97.8957 49.4332 103.236 47.9323C108.577 46.4315 114.265 46.7496 119.405 48.8366C124.545 50.9235 128.845 54.6608 131.627 59.46L110 72L132.169 83.5557Z" fill="#FFDF00"/>
<path d="M28 27.3C46.1056 27.3 60.8 43.9656 60.8 64.5L60.8 101.7L-4.79996 101.7L-4.79996 64.5C-4.79996 43.9656 9.89444 27.3 28 27.3Z" fill="#163BF3"/>
<ellipse cx="9.88538" cy="15.0165" rx="9.88538" ry="15.0165" transform="matrix(1 0 0 -1 31 72.0331)" fill="white"/>
<ellipse cx="3.95415" cy="5.0055" rx="3.95415" ry="5.0055" transform="matrix(1 0 0 -1 36.9312 67.0276)" fill="#163BF3"/>
<ellipse cx="9.80435" cy="15.0165" rx="9.80435" ry="15.0165" transform="matrix(1 0 0 -1 6.44678 71.7524)" fill="white"/>
<ellipse cx="3.92174" cy="5.0055" rx="3.92174" ry="5.0055" transform="matrix(1 0 0 -1 12.3296 66.7469)" fill="#163BF3"/>
</g>
</svg>
