<svg width="1288" height="728" viewBox="0 0 1288 728" fill="none" xmlns="http://www.w3.org/2000/svg">
<g clip-path="url(#clip0_35113_526)">
<rect width="1288" height="728" fill="black"/>
<path d="M545 140.797C492.507 97.4428 425.627 67.918 352.818 55.9567C280.008 43.9953 204.539 50.1344 135.954 73.5975C67.3692 97.0606 44.5417 108.927 -0.999995 165.701C-0.999995 249.959 -1.00001 290.929 -0.999995 352.241C-0.999984 413.553 -0.999995 482.91 -0.999995 535.628C40.2433 586.607 72.5674 614.479 135.954 646.403C204.539 669.866 280.009 676.005 352.818 664.043C425.628 652.082 492.507 622.557 545 579.203L279.592 360L545 140.797Z" fill="#FFDF00"/>
</g>
<defs>
<clipPath id="clip0_35113_526">
<rect width="1288" height="728" fill="white"/>
</clipPath>
</defs>
</svg>
