<svg width="1288" height="728" viewBox="0 0 1288 728" fill="none" xmlns="http://www.w3.org/2000/svg">
<g filter="url(#filter0_d_34504_951)">
<rect x="4" width="1280" height="720" fill="black"/>
<path d="M549.5 116.755C497.055 68.6462 430.237 35.8833 357.494 22.61C284.751 9.33671 209.351 16.1491 140.829 42.1856C72.3066 68.2221 49.5 81.3903 4 144.39C4 237.89 3.99999 283.354 4 351.39C4.00001 419.427 4 496.39 4 554.89C45.2055 611.461 77.5 642.39 140.829 677.815C209.351 703.851 284.751 710.664 357.494 697.39C430.237 684.117 497.055 651.354 549.5 603.245L284.335 360L549.5 116.755Z" fill="#FFDF00"/>
</g>
<defs>
<filter id="filter0_d_34504_951" x="0" y="0" width="1288" height="728" filterUnits="userSpaceOnUse" color-interpolation-filters="sRGB">
<feFlood flood-opacity="0" result="BackgroundImageFix"/>
<feColorMatrix in="SourceAlpha" type="matrix" values="0 0 0 0 0 0 0 0 0 0 0 0 0 0 0 0 0 0 127 0" result="hardAlpha"/>
<feOffset dy="4"/>
<feGaussianBlur stdDeviation="2"/>
<feComposite in2="hardAlpha" operator="out"/>
<feColorMatrix type="matrix" values="0 0 0 0 0 0 0 0 0 0 0 0 0 0 0 0 0 0 0.25 0"/>
<feBlend mode="normal" in2="BackgroundImageFix" result="effect1_dropShadow_34504_951"/>
<feBlend mode="normal" in="SourceGraphic" in2="effect1_dropShadow_34504_951" result="shape"/>
</filter>
</defs>
</svg>
