<svg width="170" height="48" viewBox="0 0 170 48" fill="none" xmlns="http://www.w3.org/2000/svg">
<path d="M1.632 39.816C1.344 39.144 1.12 38.296 0.96 37.272C0.8 36.248 0.704 35.192 0.672 34.104C0.64 32.984 0.672 31.912 0.768 30.888C0.896 29.864 1.072 29.016 1.296 28.344C1.776 28.152 2.24 27.832 2.688 27.384C3.168 26.904 3.568 26.152 3.888 25.128C4.208 24.072 4.368 22.6 4.368 20.712C4.368 18.664 4.176 17.128 3.792 16.104C3.44 15.048 3.008 14.344 2.496 13.992C2.016 13.608 1.584 13.416 1.2 13.416C0.912 12.84 0.704 12.056 0.576 11.064C0.448 10.072 0.384 9.016 0.384 7.896C0.416 6.744 0.512 5.64 0.672 4.584C0.832 3.496 1.072 2.568 1.392 1.8C3.76 1.896 5.888 1.912 7.776 1.848C9.696 1.784 11.6 1.688 13.488 1.56C15.408 1.432 17.488 1.32 19.728 1.224C22 1.096 24.672 1.032 27.744 1.032C32.256 1.032 36.064 1.432 39.168 2.232C42.272 3 44.624 4.424 46.224 6.504C47.856 8.552 48.672 11.48 48.672 15.288C48.672 18.584 48.048 21.224 46.8 23.208C45.584 25.192 43.824 26.632 41.52 27.528C39.216 28.392 36.448 28.824 33.216 28.824C31.168 28.824 29.536 28.664 28.32 28.344C27.104 27.992 25.984 27.224 24.96 26.04L23.952 26.952C24.784 27.944 25.792 28.712 26.976 29.256C28.16 29.768 29.632 30.056 31.392 30.12C31.68 31.016 31.856 32.04 31.92 33.192C32.016 34.344 31.984 35.496 31.824 36.648C31.696 37.8 31.456 38.84 31.104 39.768C29.536 39.64 27.36 39.48 24.576 39.288C21.824 39.096 18.672 39.016 15.12 39.048C13.328 39.048 11.568 39.096 9.84 39.192C8.112 39.288 6.528 39.384 5.088 39.48C3.68 39.608 2.528 39.72 1.632 39.816ZM23.952 18.648H26.88V15.432H23.952V18.648ZM50.7079 39.816C50.4519 39.176 50.2439 38.36 50.0839 37.368C49.9239 36.344 49.8279 35.272 49.7959 34.152C49.7959 33.032 49.8279 31.976 49.8919 30.984C49.9879 29.96 50.1479 29.128 50.3719 28.488C50.8519 28.296 51.3159 27.976 51.7639 27.528C52.2119 27.048 52.5799 26.232 52.8679 25.08C53.1559 23.928 53.2999 22.28 53.2999 20.136C53.2999 17.928 53.1239 16.28 52.7719 15.192C52.4519 14.072 52.0519 13.304 51.5719 12.888C51.1239 12.44 50.7239 12.136 50.3719 11.976C50.0839 11.432 49.8759 10.664 49.7479 9.672C49.6199 8.648 49.5559 7.56 49.5559 6.408C49.5879 5.224 49.6839 4.104 49.8439 3.048C50.0039 1.96 50.2439 1.064 50.5639 0.359997C51.4919 0.423998 52.6439 0.519999 54.0199 0.647999C55.3959 0.775999 56.8839 0.887999 58.4839 0.983997C60.1159 1.048 61.6999 1.08 63.2359 1.08C65.5079 1.08 67.5719 1.016 69.4279 0.887999C71.3159 0.727999 72.9319 0.583999 74.2759 0.455998C74.5639 1.352 74.7719 2.216 74.8999 3.048C75.0279 3.848 75.0919 4.664 75.0919 5.496C75.0919 7 74.9319 8.488 74.6119 9.96C74.3239 11.4 74.0199 12.968 73.6999 14.664C73.4119 16.328 73.2679 18.28 73.2679 20.52C73.2679 22.536 73.4119 24.088 73.6999 25.176C73.9879 26.264 74.3559 27.048 74.8039 27.528C75.2519 27.976 75.7159 28.296 76.1959 28.488C76.4839 29.48 76.6599 30.712 76.7239 32.184C76.7879 33.624 76.7399 35.048 76.5799 36.456C76.4519 37.832 76.2119 38.952 75.8599 39.816C74.9639 39.72 73.8119 39.608 72.4039 39.48C70.9959 39.384 69.4919 39.288 67.8919 39.192C66.2919 39.128 64.7399 39.096 63.2359 39.096C61.6999 39.096 60.1319 39.128 58.5319 39.192C56.9639 39.288 55.4919 39.384 54.1159 39.48C52.7399 39.608 51.6039 39.72 50.7079 39.816ZM92.7563 40.632C88.9163 40.632 85.8763 40.136 83.6363 39.144C81.4283 38.152 79.8443 36.856 78.8843 35.256C77.9243 33.656 77.4443 31.928 77.4443 30.072C77.4443 27.256 78.4363 24.968 80.4203 23.208C82.4043 21.448 85.5723 20.552 89.9243 20.52L100.1 20.424V17.88H97.4603V19.176C94.1963 19.304 90.9803 19.432 87.8123 19.56C84.6443 19.688 81.4923 19.64 78.3563 19.416C77.5563 14.424 77.6363 9.592 78.5963 4.92C79.5243 4.92 80.6443 4.936 81.9563 4.968C83.3003 5 84.7083 5.048 86.1803 5.112C87.6843 5.144 89.1563 5.176 90.5963 5.208C92.0363 5.24 93.3163 5.272 94.4363 5.304C94.0203 6.264 93.7803 7.224 93.7163 8.184C93.6843 9.144 93.8283 10.072 94.1483 10.968C94.3083 8.312 95.3163 6.472 97.1723 5.448C99.0283 4.424 101.652 3.912 105.044 3.912C109.428 3.912 112.788 4.552 115.124 5.832C117.46 7.08 119.012 8.952 119.78 11.448C120.164 12.632 120.324 13.912 120.26 15.288C120.228 16.632 120.132 17.944 119.972 19.224C119.812 20.504 119.732 21.656 119.732 22.68C119.732 24.632 120.036 26.024 120.644 26.856C121.284 27.656 121.956 28.184 122.66 28.44C122.948 29.368 123.108 30.536 123.14 31.944C123.204 33.352 123.172 34.76 123.044 36.168C122.916 37.576 122.692 38.792 122.372 39.816C120.964 40.136 119.492 40.344 117.956 40.44C116.42 40.568 115.172 40.632 114.212 40.632C111.78 40.632 109.876 40.344 108.5 39.768C107.124 39.192 106.436 38.136 106.436 36.6C106.436 36.056 106.532 35.48 106.724 34.872C106.948 34.264 107.204 33.608 107.492 32.904L106.244 32.28C105.668 33.688 104.868 35.032 103.844 36.312C102.852 37.592 101.46 38.632 99.6683 39.432C97.9083 40.232 95.6043 40.632 92.7563 40.632ZM97.4603 26.568H100.1V23.544H97.4603V26.568ZM138.021 47.304C135.269 47.304 133.013 47.016 131.253 46.44C129.493 45.864 128.117 45.096 127.125 44.136C126.133 43.208 125.429 42.184 125.013 41.064C124.629 39.976 124.437 38.888 124.437 37.8C124.437 35.816 124.853 34.216 125.685 33C126.549 31.784 127.589 30.904 128.805 30.36C130.021 29.784 131.157 29.496 132.213 29.496C132.725 29.496 133.365 29.592 134.133 29.784C134.901 29.944 135.701 30.264 136.533 30.744C137.397 31.192 138.181 31.88 138.885 32.808L139.893 31.944C138.901 30.696 137.781 29.752 136.533 29.112C135.285 28.472 134.021 28.088 132.741 27.96C131.813 27.864 130.933 27.624 130.101 27.24C129.269 26.856 128.517 26.216 127.845 25.32C127.173 24.392 126.613 23.096 126.165 21.432C125.685 19.64 125.093 18.376 124.389 17.64C123.717 16.872 122.997 16.472 122.229 16.44C121.973 15.896 121.781 15.128 121.653 14.136C121.525 13.112 121.461 12.024 121.461 10.872C121.493 9.688 121.589 8.552 121.749 7.464C121.909 6.376 122.133 5.48 122.421 4.776C123.637 4.872 125.349 5 127.557 5.16C129.797 5.32 132.293 5.4 135.045 5.4C137.125 5.4 139.141 5.32 141.093 5.16C143.077 5 144.677 4.872 145.893 4.776C145.381 6.856 145.173 9.112 145.269 11.544C145.397 13.976 145.749 16.44 146.325 18.936C146.901 21.432 147.589 23.832 148.389 26.136L148.341 16.152H146.997C146.645 13.784 146.533 11.64 146.661 9.72C146.789 7.8 147.029 6.152 147.381 4.776C148.213 4.872 149.093 4.968 150.021 5.064C150.981 5.16 152.181 5.24 153.621 5.304C155.061 5.368 156.917 5.4 159.189 5.4C160.149 5.4 161.237 5.368 162.453 5.304C163.701 5.208 164.917 5.112 166.101 5.016C167.317 4.92 168.325 4.84 169.125 4.776C169.413 5.48 169.621 6.376 169.749 7.464C169.909 8.552 169.989 9.688 169.989 10.872C169.989 12.024 169.925 13.112 169.797 14.136C169.669 15.128 169.477 15.896 169.221 16.44C168.261 16.472 167.525 16.936 167.013 17.832C166.501 18.728 166.069 19.944 165.717 21.48C165.397 22.984 164.997 24.68 164.517 26.568C163.717 30.248 162.677 33.4 161.397 36.024C160.117 38.648 158.469 40.792 156.453 42.456C154.437 44.12 151.925 45.336 148.917 46.104C145.941 46.904 142.309 47.304 138.021 47.304Z" fill="black"/>
<path d="M1.632 39.816L-0.20629 40.6038L0.375796 41.962L1.84507 41.8046L1.632 39.816ZM0.96 37.272L2.93602 36.9632L0.96 37.272ZM0.672 34.104L-1.32718 34.1611L-1.32714 34.1628L0.672 34.104ZM0.768 30.888L-1.21656 30.6399L-1.22039 30.6706L-1.22327 30.7013L0.768 30.888ZM1.296 28.344L0.553219 26.487L-0.308035 26.8315L-0.601367 27.7115L1.296 28.344ZM2.688 27.384L1.27379 25.9698L1.27379 25.9698L2.688 27.384ZM3.888 25.128L5.79696 25.7245L5.79954 25.7163L5.80205 25.708L3.888 25.128ZM3.792 16.104L1.89463 16.7365L1.90634 16.7716L1.91934 16.8062L3.792 16.104ZM2.496 13.992L1.24661 15.5537L1.30321 15.599L1.36294 15.6401L2.496 13.992ZM1.2 13.416L-0.588853 14.3104L-0.0360664 15.416H1.2V13.416ZM0.576 11.064L-1.40756 11.3199L0.576 11.064ZM0.384 7.896L-1.61523 7.84047L-1.616 7.86823V7.896H0.384ZM0.672 4.584L2.64945 4.88361L2.65072 4.87499L0.672 4.584ZM1.392 1.8L1.47302 -0.19836L0.0814887 -0.254774L-0.454154 1.03077L1.392 1.8ZM7.776 1.848L7.70937 -0.150892L7.70824 -0.150854L7.776 1.848ZM13.488 1.56L13.355 -0.435573L13.3527 -0.435421L13.488 1.56ZM19.728 1.224L19.8136 3.22216L19.8271 3.22159L19.8405 3.22083L19.728 1.224ZM39.168 2.232L38.6688 4.16871L38.6782 4.17113L38.6876 4.17345L39.168 2.232ZM46.224 6.504L44.6388 7.72342L44.6492 7.737L44.6599 7.7504L46.224 6.504ZM46.8 23.208L45.1071 22.1431L45.1009 22.153L45.0948 22.1629L46.8 23.208ZM41.52 27.528L42.2222 29.4007L42.2336 29.3964L42.2449 29.392L41.52 27.528ZM28.32 28.344L27.7639 30.2651L27.7874 30.2719L27.811 30.2781L28.32 28.344ZM24.96 26.04L26.4727 24.7317L25.1348 23.1847L23.6182 24.5569L24.96 26.04ZM23.952 26.952L22.6102 25.4689L21.1818 26.7613L22.4196 28.2372L23.952 26.952ZM26.976 29.256L26.141 31.0734L26.1615 31.0828L26.1822 31.0917L26.976 29.256ZM31.392 30.12L33.2961 29.508L32.8667 28.1723L31.4647 28.1213L31.392 30.12ZM31.92 33.192L29.9231 33.3029L29.9246 33.3305L29.9269 33.3581L31.92 33.192ZM31.824 36.648L29.843 36.3729L29.8393 36.4L29.8362 36.4271L31.824 36.648ZM31.104 39.768L30.9413 41.7614L32.4405 41.8838L32.974 40.4773L31.104 39.768ZM24.576 39.288L24.4368 41.2831L24.4384 41.2833L24.576 39.288ZM15.12 39.048V41.048H15.129L15.138 41.0479L15.12 39.048ZM9.84 39.192L9.95094 41.1889L9.84 39.192ZM5.088 39.48L4.95496 37.4844L4.93092 37.486L4.90693 37.4882L5.088 39.48ZM23.952 18.648H21.952V20.648H23.952V18.648ZM26.88 18.648V20.648H28.88V18.648H26.88ZM26.88 15.432H28.88V13.432H26.88V15.432ZM23.952 15.432V13.432H21.952V15.432H23.952ZM3.47029 39.0282C3.26898 38.5584 3.08005 37.885 2.93602 36.9632L-1.01602 37.5808C-0.840048 38.707 -0.580982 39.7296 -0.20629 40.6038L3.47029 39.0282ZM2.93602 36.9632C2.78958 36.026 2.7008 35.0536 2.67114 34.0452L-1.32714 34.1628C-1.2928 35.3304 -1.18958 36.47 -1.01602 37.5808L2.93602 36.9632ZM2.67118 34.0469C2.6413 33.0011 2.6715 32.0108 2.75927 31.0747L-1.22327 30.7013C-1.3275 31.8132 -1.3613 32.9669 -1.32718 34.1611L2.67118 34.0469ZM2.75256 31.1361C2.87091 30.1893 3.02517 29.4811 3.19337 28.9765L-0.601367 27.7115C-0.881165 28.5509 -1.07891 29.5387 -1.21656 30.6399L2.75256 31.1361ZM2.03878 30.201C2.82016 29.8884 3.50475 29.3957 4.10221 28.7982L1.27379 25.9698C0.975251 26.2683 0.731839 26.4156 0.553219 26.487L2.03878 30.201ZM4.10221 28.7982C4.90603 27.9944 5.4309 26.896 5.79696 25.7245L1.97904 24.5314C1.7051 25.408 1.42997 25.8136 1.27379 25.9698L4.10221 28.7982ZM5.80205 25.708C6.20542 24.3769 6.368 22.6781 6.368 20.712H2.368C2.368 22.5219 2.21058 23.7671 1.97395 24.548L5.80205 25.708ZM6.368 20.712C6.368 18.5959 6.17726 16.7687 5.66466 15.4018L1.91934 16.8062C2.17474 17.4873 2.368 18.7321 2.368 20.712H6.368ZM5.68937 15.4715C5.29586 14.291 4.68773 13.0717 3.62906 12.3439L1.36294 15.6401C1.3258 15.6145 1.3839 15.6419 1.49935 15.83C1.61345 16.016 1.75139 16.3067 1.89463 16.7365L5.68937 15.4715ZM3.74539 12.4303C3.10954 11.9216 2.24007 11.416 1.2 11.416V15.416C1.05536 15.416 0.981859 15.3797 0.999722 15.3876C1.00799 15.3913 1.03367 15.4036 1.07701 15.431C1.12023 15.4583 1.17678 15.4979 1.24661 15.5537L3.74539 12.4303ZM2.98885 12.5216C2.84059 12.225 2.67294 11.6868 2.55956 10.8081L-1.40756 11.3199C-1.26494 12.4252 -1.01659 13.455 -0.588853 14.3104L2.98885 12.5216ZM2.55956 10.8081C2.44371 9.91028 2.384 8.94039 2.384 7.896H-1.616C-1.616 9.0916 -1.54771 10.2337 -1.40756 11.3199L2.55956 10.8081ZM2.38323 7.95153C2.41314 6.87491 2.50259 5.85273 2.64943 4.88361L-1.30543 4.28439C-1.47859 5.42727 -1.58113 6.61308 -1.61523 7.84047L2.38323 7.95153ZM2.65072 4.87499C2.7938 3.90203 2.99869 3.14394 3.23815 2.56923L-0.454154 1.03077C-0.854693 1.99206 -1.1298 3.08997 -1.30672 4.29301L2.65072 4.87499ZM1.31098 3.79836C3.71672 3.89589 5.8956 3.91289 7.84376 3.84685L7.70824 -0.150854C5.8804 -0.088892 3.80328 -0.103889 1.47302 -0.19836L1.31098 3.79836ZM7.84263 3.84689C9.78519 3.78214 11.7121 3.68499 13.6233 3.55542L13.3527 -0.435421C11.4879 -0.308994 9.60682 -0.21414 7.70937 -0.150892L7.84263 3.84689ZM13.621 3.55557C15.5229 3.42878 17.5869 3.31759 19.8136 3.22216L19.6424 -0.774169C17.3891 -0.677598 15.2931 -0.564779 13.355 -0.435572L13.621 3.55557ZM19.8405 3.22083C22.0647 3.09552 24.6975 3.032 27.744 3.032V-0.968C24.6465 -0.968 21.9353 -0.903527 19.6155 -0.772837L19.8405 3.22083ZM27.744 3.032C32.1502 3.032 35.779 3.42391 38.6688 4.16871L39.6672 0.295288C36.349 -0.559916 32.3618 -0.968 27.744 -0.968V3.032ZM38.6876 4.17345C41.4513 4.85723 43.3711 6.07544 44.6388 7.72342L47.8092 5.28458C45.8769 2.77255 43.0928 1.14276 39.6484 0.290542L38.6876 4.17345ZM44.6599 7.7504C45.9065 9.31477 46.672 11.7335 46.672 15.288H50.672C50.672 11.2265 49.8055 7.78922 47.7881 5.25759L44.6599 7.7504ZM46.672 15.288C46.672 18.3535 46.0887 20.5826 45.1071 22.1431L48.4929 24.2729C50.0073 21.8654 50.672 18.8145 50.672 15.288H46.672ZM45.0948 22.1629C44.122 23.75 42.7187 24.9159 40.7951 25.664L42.2449 29.392C44.9293 28.3481 47.046 26.634 48.5052 24.2531L45.0948 22.1629ZM40.8178 25.6553C38.7964 26.4133 36.2793 26.824 33.216 26.824V30.824C36.6167 30.824 39.6356 30.3707 42.2222 29.4007L40.8178 25.6553ZM33.216 26.824C31.2467 26.824 29.808 26.6675 28.829 26.4099L27.811 30.2781C29.264 30.6605 31.0893 30.824 33.216 30.824V26.824ZM28.8761 26.4229C28.1108 26.2013 27.3038 25.6926 26.4727 24.7317L23.4473 27.3483C24.6642 28.7554 26.0972 29.7827 27.7639 30.2651L28.8761 26.4229ZM23.6182 24.5569L22.6102 25.4689L25.2938 28.4351L26.3018 27.5231L23.6182 24.5569ZM22.4196 28.2372C23.4431 29.4575 24.6898 30.4066 26.141 31.0734L27.811 27.4386C26.8942 27.0174 26.1249 26.4305 25.4844 25.6668L22.4196 28.2372ZM26.1822 31.0917C27.6611 31.7312 29.3957 32.0487 31.3193 32.1187L31.4647 28.1213C29.8683 28.0633 28.6589 27.8048 27.7698 27.4203L26.1822 31.0917ZM29.4879 30.732C29.7136 31.434 29.8665 32.2845 29.9231 33.3029L33.9169 33.0811C33.8455 31.7955 33.6464 30.598 33.2961 29.508L29.4879 30.732ZM29.9269 33.3581C30.0106 34.3621 29.9828 35.3661 29.843 36.3729L33.805 36.9231C33.9852 35.6259 34.0214 34.3259 33.9131 33.0259L29.9269 33.3581ZM29.8362 36.4271C29.7238 37.4392 29.5174 38.3116 29.234 39.0587L32.974 40.4773C33.3946 39.3684 33.6682 38.1608 33.8118 36.8689L29.8362 36.4271ZM31.2667 37.7746C29.6863 37.6456 27.5007 37.485 24.7136 37.2927L24.4384 41.2833C27.2193 41.4751 29.3857 41.6344 30.9413 41.7614L31.2667 37.7746ZM24.7152 37.2929C21.8985 37.0963 18.6924 37.0157 15.102 37.0481L15.138 41.0479C18.6516 41.0163 21.7495 41.0957 24.4368 41.2831L24.7152 37.2929ZM15.12 37.048C13.2923 37.048 11.4953 37.097 9.72906 37.1951L9.95094 41.1889C11.6407 41.095 13.3637 41.048 15.12 41.048V37.048ZM9.72906 37.1951C7.99509 37.2914 6.4036 37.3879 4.95496 37.4844L5.22104 41.4756C6.6524 41.3801 8.22891 41.2846 9.95094 41.1889L9.72906 37.1951ZM4.90693 37.4882C3.49351 37.6167 2.32979 37.7298 1.41893 37.8274L1.84507 41.8046C2.72621 41.7102 3.86649 41.5993 5.26907 41.4718L4.90693 37.4882ZM23.952 20.648H26.88V16.648H23.952V20.648ZM28.88 18.648V15.432H24.88V18.648H28.88ZM26.88 13.432H23.952V17.432H26.88V13.432ZM21.952 15.432V18.648H25.952V15.432H21.952ZM50.7079 39.816L48.8509 40.5588L49.4138 41.9661L50.9209 41.8046L50.7079 39.816ZM50.0839 37.368L48.1078 37.6768L48.1094 37.6865L50.0839 37.368ZM49.7959 34.152H47.7959V34.1806L47.7967 34.2091L49.7959 34.152ZM49.8919 30.984L47.9006 30.7973L47.8979 30.8262L47.896 30.8552L49.8919 30.984ZM50.3719 28.488L49.6291 26.631L48.7846 26.9688L48.4842 27.8273L50.3719 28.488ZM51.7639 27.528L53.1781 28.9422L53.2025 28.9178L53.226 28.8926L51.7639 27.528ZM52.7719 15.192L50.8488 15.7414L50.8583 15.7747L50.869 15.8076L52.7719 15.192ZM51.5719 12.888L50.1577 14.3022L50.2081 14.3527L50.262 14.3994L51.5719 12.888ZM50.3719 11.976L48.6043 12.9118L48.9234 13.5145L49.5443 13.7967L50.3719 11.976ZM49.7479 9.672L47.7633 9.92007L47.7643 9.92794L49.7479 9.672ZM49.5559 6.408L47.5566 6.35396L47.5559 6.38098V6.408H49.5559ZM49.8439 3.048L51.8213 3.34761L51.8226 3.33899L49.8439 3.048ZM50.5639 0.359997L50.7015 -1.63526L49.3173 -1.73073L48.7431 -0.467608L50.5639 0.359997ZM54.0199 0.647999L53.8346 2.6394L54.0199 0.647999ZM58.4839 0.983997L58.3641 2.98041L58.3848 2.98165L58.4055 2.98246L58.4839 0.983997ZM69.4279 0.887999L69.5655 2.88326L69.5811 2.88218L69.5968 2.88086L69.4279 0.887999ZM74.2759 0.455998L76.1799 -0.15602L75.6877 -1.68751L74.0863 -1.53499L74.2759 0.455998ZM74.8999 3.048L72.9231 3.35212L72.925 3.36398L74.8999 3.048ZM74.6119 9.96L72.6575 9.53514L72.654 9.55143L72.6507 9.56777L74.6119 9.96ZM73.6999 14.664L71.7346 14.2932L71.7318 14.308L71.7292 14.3229L73.6999 14.664ZM74.8039 27.528L73.3418 28.8926L73.3653 28.9178L73.3897 28.9422L74.8039 27.528ZM76.1959 28.488L78.1166 27.9304L77.8445 26.9934L76.9387 26.631L76.1959 28.488ZM76.7239 32.184L74.7258 32.2709L74.7258 32.2728L76.7239 32.184ZM76.5799 36.456L74.5927 36.2302L74.5904 36.2504L74.5885 36.2708L76.5799 36.456ZM75.8599 39.816L75.6468 41.8046L77.144 41.965L77.7121 40.5706L75.8599 39.816ZM72.4039 39.48L72.5849 37.4882L72.5625 37.4862L72.5399 37.4846L72.4039 39.48ZM67.8919 39.192L68.0117 37.1956L67.9917 37.1944L67.9718 37.1936L67.8919 39.192ZM58.5319 39.192L58.4519 37.1936L58.4308 37.1944L58.4097 37.1957L58.5319 39.192ZM54.1159 39.48L53.9767 37.4848L53.9536 37.4865L53.9306 37.4886L54.1159 39.48ZM52.5648 39.0732C52.3821 38.6165 52.2045 37.9559 52.0584 37.0495L48.1094 37.6865C48.2832 38.7641 48.5216 39.7355 48.8509 40.5588L52.5648 39.0732ZM52.0599 37.0592C51.9139 36.1249 51.8248 35.1373 51.7951 34.0949L47.7967 34.2091C47.8309 35.4067 47.9338 36.5631 48.1078 37.6768L52.0599 37.0592ZM51.7959 34.152C51.7959 33.0697 51.8268 32.0569 51.8877 31.1128L47.896 30.8552C47.8289 31.8951 47.7959 32.9943 47.7959 34.152H51.7959ZM51.8831 31.1707C51.9709 30.2343 52.1092 29.5784 52.2596 29.1487L48.4842 27.8273C48.1866 28.6776 48.0048 29.6857 47.9006 30.7973L51.8831 31.1707ZM51.1147 30.345C51.896 30.0324 52.5806 29.5397 53.1781 28.9422L50.3497 26.1138C50.0511 26.4123 49.8077 26.5596 49.6291 26.631L51.1147 30.345ZM53.226 28.8926C54.0248 28.0368 54.4946 26.8192 54.8082 25.5651L50.9276 24.5949C50.6651 25.6448 50.399 26.0592 50.3018 26.1634L53.226 28.8926ZM54.8082 25.5651C55.1555 24.1756 55.2999 22.335 55.2999 20.136H51.2999C51.2999 22.225 51.1562 23.6804 50.9276 24.5949L54.8082 25.5651ZM55.2999 20.136C55.2999 17.8755 55.1261 15.9714 54.6748 14.5764L50.869 15.8076C51.1217 16.5886 51.2999 17.9805 51.2999 20.136H55.2999ZM54.6949 14.6426C54.3447 13.4168 53.8116 12.1825 52.8817 11.3766L50.262 14.3994C50.2563 14.3944 50.3348 14.4633 50.458 14.6999C50.5787 14.9316 50.7141 15.2697 50.8488 15.7414L54.6949 14.6426ZM52.9861 11.4738C52.4627 10.9504 51.8649 10.4577 51.1995 10.1553L49.5443 13.7967C49.5829 13.8143 49.7851 13.9296 50.1577 14.3022L52.9861 11.4738ZM52.1395 11.0402C52.0118 10.799 51.8455 10.3 51.7314 9.41606L47.7643 9.92794C47.9063 11.028 48.156 12.065 48.6043 12.9118L52.1395 11.0402ZM51.7324 9.42393C51.6158 8.49104 51.5559 7.48646 51.5559 6.408H47.5559C47.5559 7.63354 47.6239 8.80496 47.7633 9.92007L51.7324 9.42393ZM51.5551 6.46203C51.5852 5.35152 51.6749 4.31407 51.8213 3.34761L47.8664 2.74839C47.6929 3.89393 47.5906 5.09648 47.5566 6.35396L51.5551 6.46203ZM51.8226 3.33899C51.9658 2.36511 52.1672 1.66595 52.3846 1.1876L48.7431 -0.467608C48.3206 0.462048 48.0419 1.55489 47.8652 2.75701L51.8226 3.33899ZM50.4263 2.35526C51.3328 2.41778 52.4677 2.51224 53.8346 2.6394L54.2051 -1.3434C52.8201 -1.47225 51.651 -1.56978 50.7015 -1.63526L50.4263 2.35526ZM53.8346 2.6394C55.2355 2.76972 56.7456 2.8833 58.3641 2.98041L58.6037 -1.01241C57.0222 -1.1073 55.5562 -1.21772 54.2051 -1.3434L53.8346 2.6394ZM58.4055 2.98246C60.062 3.04742 61.6722 3.08 63.2359 3.08V-0.920001C61.7276 -0.920001 60.1698 -0.951426 58.5622 -1.01447L58.4055 2.98246ZM63.2359 3.08C65.5442 3.08 67.655 3.01502 69.5655 2.88326L69.2903 -1.10726C67.4887 -0.983019 65.4716 -0.920001 63.2359 -0.920001V3.08ZM69.5968 2.88086C71.4892 2.72048 73.1125 2.57585 74.4655 2.44699L74.0863 -1.53499C72.7513 -1.40785 71.1426 -1.26449 69.259 -1.10486L69.5968 2.88086ZM72.3718 1.06802C72.6312 1.87504 72.8129 2.63587 72.9231 3.35211L76.8766 2.74389C76.7308 1.79613 76.4965 0.82896 76.1799 -0.15602L72.3718 1.06802ZM72.925 3.36398C73.0358 4.05671 73.0919 4.76698 73.0919 5.496H77.0919C77.0919 4.56102 77.0199 3.63929 76.8748 2.73202L72.925 3.36398ZM73.0919 5.496C73.0919 6.85693 72.9472 8.2025 72.6575 9.53514L76.5662 10.3849C76.9165 8.7735 77.0919 7.14307 77.0919 5.496H73.0919ZM72.6507 9.56777C72.3611 11.016 72.0557 12.5912 71.7346 14.2932L75.6652 15.0348C75.9841 13.3448 76.2867 11.784 76.573 10.3522L72.6507 9.56777ZM71.7292 14.3229C71.4166 16.1291 71.2679 18.2002 71.2679 20.52H75.2679C75.2679 18.3598 75.4072 16.5269 75.6706 15.0051L71.7292 14.3229ZM71.2679 20.52C71.2679 22.5956 71.4125 24.3505 71.7665 25.6878L75.6333 24.6642C75.4113 23.8255 75.2679 22.4764 75.2679 20.52H71.2679ZM71.7665 25.6878C72.0864 26.8963 72.5613 28.0564 73.3418 28.8926L76.266 26.1634C76.1505 26.0396 75.8894 25.6317 75.6333 24.6642L71.7665 25.6878ZM73.3897 28.9422C73.9871 29.5397 74.6717 30.0324 75.4531 30.345L76.9387 26.631C76.76 26.5596 76.5166 26.4123 76.2181 26.1138L73.3897 28.9422ZM74.2752 29.0456C74.5043 29.8347 74.666 30.8967 74.7258 32.2709L78.722 32.0971C78.6537 30.5273 78.4635 29.1253 78.1166 27.9304L74.2752 29.0456ZM74.7258 32.2728C74.7853 33.6096 74.7406 34.9284 74.5927 36.2302L78.5671 36.6818C78.7392 35.1676 78.7905 33.6384 78.7219 32.0952L74.7258 32.2728ZM74.5885 36.2708C74.4708 37.5357 74.2592 38.4441 74.0077 39.0614L77.7121 40.5706C78.1646 39.4599 78.433 38.1283 78.5713 36.6412L74.5885 36.2708ZM76.0729 37.8274C75.1621 37.7298 73.9984 37.6167 72.5849 37.4882L72.2228 41.4718C73.6254 41.5993 74.7657 41.7102 75.6468 41.8046L76.0729 37.8274ZM72.5399 37.4846C71.1258 37.3882 69.6164 37.2919 68.0117 37.1956L67.7721 41.1884C69.3674 41.2841 70.8659 41.3798 72.2678 41.4754L72.5399 37.4846ZM67.9718 37.1936C66.3469 37.1286 64.7682 37.096 63.2359 37.096V41.096C64.7116 41.096 66.2369 41.1274 67.8119 41.1904L67.9718 37.1936ZM63.2359 37.096C61.6721 37.096 60.0774 37.1286 58.4519 37.1936L58.6118 41.1904C60.1863 41.1274 61.7276 41.096 63.2359 41.096V37.096ZM58.4097 37.1957C56.8368 37.292 55.359 37.3884 53.9767 37.4848L54.2551 41.4752C55.6247 41.3796 57.091 41.284 58.6541 41.1883L58.4097 37.1957ZM53.9306 37.4886C52.5497 37.6171 51.4036 37.73 50.4948 37.8274L50.9209 41.8046C51.8042 41.71 52.9301 41.5989 54.3011 41.4714L53.9306 37.4886ZM83.6363 39.144L82.8166 40.9684L82.8264 40.9727L83.6363 39.144ZM78.8842 35.256L80.5992 34.227L78.8842 35.256ZM80.4202 23.208L79.093 21.7118L80.4202 23.208ZM89.9242 20.52L89.939 22.52L89.9431 22.5199L89.9242 20.52ZM100.1 20.424L100.119 22.4239L102.1 22.4052V20.424H100.1ZM100.1 17.88H102.1V15.88H100.1V17.88ZM97.4603 17.88V15.88H95.4603V17.88H97.4603ZM97.4603 19.176L97.5386 21.1745L99.4603 21.0991V19.176H97.4603ZM87.8122 19.56L87.7315 17.5616L87.8122 19.56ZM78.3562 19.416L76.3814 19.7325L76.6323 21.298L78.2138 21.4109L78.3562 19.416ZM78.5963 4.92V2.92H76.9654L76.6372 4.51745L78.5963 4.92ZM81.9563 4.968L81.9075 6.9674L81.9086 6.96743L81.9563 4.968ZM86.1803 5.112L86.0934 7.11011L86.1155 7.11107L86.1377 7.11155L86.1803 5.112ZM90.5963 5.208L90.6407 3.20849L90.5963 5.208ZM94.4362 5.304L96.2714 6.09921L97.4457 3.38917L94.4934 3.30481L94.4362 5.304ZM93.7162 8.184L91.7207 8.05096L91.7185 8.08414L91.7174 8.11737L93.7162 8.184ZM94.1482 10.968L92.2648 11.6407L96.1446 11.0883L94.1482 10.968ZM97.1722 5.448L96.2061 3.69684L96.2061 3.69684L97.1722 5.448ZM115.124 5.832L114.163 7.58595L114.172 7.59104L114.182 7.59604L115.124 5.832ZM119.78 11.448L117.869 12.0362L117.873 12.0506L117.878 12.065L119.78 11.448ZM120.26 15.288L118.262 15.1951L118.261 15.2177L118.261 15.2404L120.26 15.288ZM119.972 19.224L117.988 18.9759L119.972 19.224ZM120.644 26.856L119.029 28.036L119.055 28.0713L119.083 28.1054L120.644 26.856ZM122.66 28.44L124.57 27.8472L124.276 26.8995L123.344 26.5604L122.66 28.44ZM123.14 31.944L121.141 31.9894L121.141 32.0121L121.142 32.0348L123.14 31.944ZM122.372 39.816L122.815 41.7663L123.938 41.5112L124.281 40.4125L122.372 39.816ZM117.956 40.44L117.831 38.4439L117.811 38.4452L117.79 38.4469L117.956 40.44ZM108.5 39.768L109.273 37.9231L108.5 39.768ZM106.724 34.872L104.848 34.1806L104.831 34.2248L104.817 34.2697L106.724 34.872ZM107.492 32.904L109.343 33.6613L110.046 31.9446L108.387 31.1151L107.492 32.904ZM106.244 32.28L107.139 30.4911L105.21 29.5267L104.393 31.5227L106.244 32.28ZM103.844 36.312L102.283 35.0626L102.273 35.0747L102.263 35.0869L103.844 36.312ZM99.6683 39.432L98.8529 37.6057L98.8406 37.6113L99.6683 39.432ZM97.4603 26.568H95.4603V28.568H97.4603V26.568ZM100.1 26.568V28.568H102.1V26.568H100.1ZM100.1 23.544H102.1V21.544H100.1V23.544ZM97.4603 23.544V21.544H95.4603V23.544H97.4603ZM92.7562 38.632C89.0538 38.632 86.3275 38.1485 84.4461 37.3153L82.8264 40.9727C85.425 42.1235 88.7787 42.632 92.7562 42.632V38.632ZM84.4559 37.3197C82.5104 36.4456 81.2945 35.3857 80.5992 34.227L77.1693 36.285C78.394 38.3263 80.3461 39.8584 82.8166 40.9683L84.4559 37.3197ZM80.5992 34.227C79.8247 32.9361 79.4443 31.5635 79.4443 30.072H75.4443C75.4443 32.2925 76.0238 34.3759 77.1693 36.285L80.5992 34.227ZM79.4443 30.072C79.4443 27.788 80.2204 26.0588 81.7475 24.7041L79.093 21.7118C76.6521 23.8772 75.4443 26.724 75.4443 30.072H79.4443ZM81.7475 24.7041C83.1994 23.4161 85.7812 22.5505 89.939 22.5199L89.9095 18.5201C85.3633 18.5535 81.6091 19.4799 79.093 21.7118L81.7475 24.7041ZM89.9431 22.5199L100.119 22.4239L100.081 18.4241L89.9054 18.5201L89.9431 22.5199ZM102.1 20.424V17.88H98.1003V20.424H102.1ZM100.1 15.88H97.4603V19.88H100.1V15.88ZM95.4603 17.88V19.176H99.4603V17.88H95.4603ZM97.3819 17.1775C94.1171 17.3056 90.9003 17.4336 87.7315 17.5616L87.893 21.5584C91.0602 21.4304 94.2754 21.3024 97.5386 21.1745L97.3819 17.1775ZM87.7315 17.5616C84.6373 17.6866 81.5598 17.6397 78.4987 17.4211L78.2138 21.4109C81.4247 21.6403 84.6512 21.6894 87.893 21.5584L87.7315 17.5616ZM80.3311 19.0995C79.567 14.3317 79.6468 9.74387 80.5553 5.32255L76.6372 4.51745C75.6257 9.44013 75.5455 14.5163 76.3814 19.7325L80.3311 19.0995ZM78.5963 6.92C79.5029 6.92 80.6057 6.93565 81.9075 6.9674L82.005 2.96859C80.6828 2.93634 79.5456 2.92 78.5963 2.92V6.92ZM81.9086 6.96743C83.2384 6.99909 84.6332 7.04663 86.0934 7.11011L86.2671 3.11389C84.7833 3.04937 83.3621 3.00091 82.0039 2.96856L81.9086 6.96743ZM86.1377 7.11155C87.6411 7.14353 89.1125 7.17552 90.5518 7.2075L90.6407 3.20849C89.2 3.17648 87.7274 3.14446 86.2228 3.11245L86.1377 7.11155ZM90.5518 7.2075C91.9887 7.23944 93.2644 7.27133 94.3791 7.30318L94.4934 3.30481C93.3681 3.27267 92.0838 3.24056 90.6407 3.20849L90.5518 7.2075ZM92.6011 4.50878C92.1021 5.66035 91.8012 6.84354 91.7207 8.05096L95.7118 8.31704C95.7593 7.60446 95.9384 6.86765 96.2714 6.09921L92.6011 4.50878ZM91.7174 8.11737C91.6771 9.3264 91.8593 10.5054 92.2648 11.6407L96.0317 10.2953C95.7972 9.63862 95.6914 8.9616 95.7151 8.25063L91.7174 8.11737ZM96.1446 11.0883C96.2754 8.91689 97.039 7.80573 98.1384 7.19915L96.2061 3.69684C93.5935 5.13827 92.3411 7.70711 92.1519 10.8477L96.1446 11.0883ZM98.1384 7.19915C99.572 6.40823 101.808 5.912 105.044 5.912V1.912C101.497 1.912 98.4846 2.43977 96.2061 3.69684L98.1384 7.19915ZM105.044 5.912C109.285 5.912 112.254 6.53982 114.163 7.58595L116.085 4.07805C113.323 2.56418 109.572 1.912 105.044 1.912V5.912ZM114.182 7.59604C116.06 8.59927 117.258 10.0526 117.869 12.0362L121.692 10.8598C120.766 7.85139 118.861 5.56073 116.067 4.06796L114.182 7.59604ZM117.878 12.065C118.18 12.9969 118.316 14.0339 118.262 15.1951L122.258 15.3809C122.332 13.7901 122.148 12.2671 121.683 10.831L117.878 12.065ZM118.261 15.2404C118.23 16.5202 118.139 17.7652 117.988 18.9759L121.957 19.4721C122.125 18.1228 122.226 16.7438 122.26 15.3356L118.261 15.2404ZM117.988 18.9759C117.82 20.3182 117.732 21.555 117.732 22.68H121.732C121.732 21.757 121.805 20.6898 121.957 19.4721L117.988 18.9759ZM117.732 22.68C117.732 24.7313 118.031 26.6692 119.029 28.036L122.259 25.676C122.042 25.3788 121.732 24.5326 121.732 22.68H117.732ZM119.083 28.1054C119.871 29.0906 120.823 29.9001 121.977 30.3196L123.344 26.5604C123.089 26.4679 122.698 26.2214 122.206 25.6066L119.083 28.1054ZM120.75 29.0328C120.964 29.7234 121.111 30.6917 121.141 31.9894L125.14 31.8986C125.105 30.3803 124.932 29.0126 124.57 27.8472L120.75 29.0328ZM121.142 32.0348C121.202 33.3519 121.172 34.669 121.052 35.9869L125.036 36.3491C125.172 34.851 125.206 33.3521 125.138 31.8532L121.142 32.0348ZM121.052 35.9869C120.933 37.2956 120.73 38.3654 120.463 39.2195L124.281 40.4125C124.654 39.2186 124.899 37.8564 125.036 36.3491L121.052 35.9869ZM121.929 37.8657C120.632 38.1604 119.267 38.3542 117.831 38.4439L118.081 42.4361C119.717 42.3338 121.296 42.1116 122.815 41.7663L121.929 37.8657ZM117.79 38.4469C116.281 38.5727 115.094 38.632 114.212 38.632V42.632C115.25 42.632 116.56 42.5633 118.122 42.4331L117.79 38.4469ZM114.212 38.632C111.899 38.632 110.298 38.3523 109.273 37.9231L107.728 41.6129C109.455 42.3357 111.662 42.632 114.212 42.632V38.632ZM109.273 37.9231C108.885 37.7609 108.715 37.5864 108.628 37.4522C108.538 37.3139 108.436 37.0658 108.436 36.6H104.436C104.436 37.6702 104.679 38.7181 105.277 39.6358C105.877 40.5576 106.739 41.1991 107.728 41.6129L109.273 37.9231ZM108.436 36.6C108.436 36.292 108.491 35.9201 108.631 35.4743L104.817 34.2697C104.574 35.0399 104.436 35.82 104.436 36.6H108.436ZM108.601 35.5634C108.816 34.9809 109.063 34.3471 109.343 33.6613L105.641 32.1467C105.346 32.8689 105.081 33.5471 104.848 34.1806L108.601 35.5634ZM108.387 31.1151L107.139 30.4911L105.35 34.0689L106.598 34.6929L108.387 31.1151ZM104.393 31.5227C103.895 32.7405 103.196 33.9204 102.283 35.0626L105.406 37.5614C106.54 36.1436 107.442 34.6355 108.095 33.0373L104.393 31.5227ZM102.263 35.0869C101.512 36.0568 100.407 36.9118 98.853 37.6057L100.484 41.2583C102.513 40.3522 104.193 39.1272 105.425 37.5371L102.263 35.0869ZM98.8406 37.6113C97.4336 38.2508 95.4425 38.632 92.7562 38.632V42.632C95.766 42.632 98.3829 42.2132 100.496 41.2527L98.8406 37.6113ZM97.4603 28.568H100.1V24.568H97.4603V28.568ZM102.1 26.568V23.544H98.1003V26.568H102.1ZM100.1 21.544H97.4603V25.544H100.1V21.544ZM95.4603 23.544V26.568H99.4603V23.544H95.4603ZM131.253 46.44L131.875 44.5392L131.253 46.44ZM127.125 44.136L128.516 42.6988L128.504 42.687L128.491 42.6755L127.125 44.136ZM125.013 41.064L123.127 41.7296L123.132 41.7451L123.138 41.7604L125.013 41.064ZM125.685 33L124.055 31.8416L124.044 31.856L124.034 31.8706L125.685 33ZM128.805 30.36L129.622 32.1856L129.642 32.1768L129.661 32.1675L128.805 30.36ZM134.133 29.784L133.648 31.7243L133.686 31.7339L133.725 31.742L134.133 29.784ZM136.533 30.744L135.534 32.4764L135.572 32.4988L135.612 32.5195L136.533 30.744ZM138.885 32.808L137.292 34.0168L138.575 35.7081L140.187 34.3265L138.885 32.808ZM139.893 31.944L141.195 33.4625L142.658 32.2082L141.459 30.6995L139.893 31.944ZM136.533 29.112L137.446 27.3324L136.533 29.112ZM132.741 27.96L132.535 29.9494L132.542 29.9501L132.741 27.96ZM130.101 27.24L129.263 29.0559L130.101 27.24ZM127.845 25.32L126.225 26.493L126.235 26.5066L126.245 26.52L127.845 25.32ZM126.165 21.432L124.233 21.9495L124.234 21.9519L126.165 21.432ZM124.389 17.64L122.884 18.957L122.913 18.9904L122.944 19.0224L124.389 17.64ZM122.229 16.44L120.419 17.2916L120.935 18.3878L122.146 18.4383L122.229 16.44ZM121.653 14.136L119.668 14.3841L119.669 14.3919L121.653 14.136ZM121.461 10.872L119.462 10.818L119.461 10.845V10.872H121.461ZM121.749 7.464L123.728 7.75499L121.749 7.464ZM122.421 4.776L122.578 2.7822L121.123 2.66728L120.57 4.01873L122.421 4.776ZM127.557 5.16L127.412 7.15477L127.415 7.15491L127.557 5.16ZM141.093 5.16L140.932 3.16647L140.93 3.16668L141.093 5.16ZM145.893 4.776L147.835 5.25404L148.497 2.56418L145.736 2.7822L145.893 4.776ZM145.269 11.544L143.271 11.6229L143.271 11.636L143.272 11.6491L145.269 11.544ZM148.389 26.136L146.5 26.792L150.389 26.1264L148.389 26.136ZM148.341 16.152L150.341 16.1424L150.331 14.152H148.341V16.152ZM146.997 16.152L145.019 16.4461L145.272 18.152H146.997V16.152ZM147.381 4.776L147.61 2.78918L145.876 2.58908L145.443 4.28033L147.381 4.776ZM150.021 5.064L149.815 7.05339L149.822 7.05407L150.021 5.064ZM153.621 5.304L153.532 7.30203L153.621 5.304ZM162.453 5.304L162.558 7.30124L162.582 7.29996L162.606 7.29811L162.453 5.304ZM166.101 5.016L165.944 3.0222L165.939 3.02254L166.101 5.016ZM169.125 4.776L170.976 4.01873L170.423 2.6658L168.965 2.78237L169.125 4.776ZM169.749 7.464L167.763 7.69768L167.766 7.72639L167.77 7.75499L169.749 7.464ZM169.797 14.136L171.781 14.3919L171.782 14.3841L169.797 14.136ZM169.221 16.44L169.288 18.4389L170.51 18.3981L171.031 17.2916L169.221 16.44ZM167.013 17.832L165.277 16.8397V16.8397L167.013 17.832ZM165.717 21.48L163.768 21.0332L163.764 21.0485L163.761 21.0638L165.717 21.48ZM164.517 26.568L162.579 26.0752L162.57 26.109L162.563 26.1431L164.517 26.568ZM161.397 36.024L163.195 36.9008L161.397 36.024ZM156.453 42.456L157.726 43.9984L156.453 42.456ZM148.917 46.104L148.422 44.1662L148.41 44.1693L148.398 44.1726L148.917 46.104ZM138.021 45.304C135.388 45.304 133.362 45.0259 131.875 44.5392L130.631 48.3408C132.664 49.0061 135.15 49.304 138.021 49.304V45.304ZM131.875 44.5392C130.309 44.0268 129.229 43.3888 128.516 42.6988L125.734 45.5732C127.005 46.8032 128.677 47.7012 130.631 48.3408L131.875 44.5392ZM128.491 42.6755C127.695 41.9301 127.182 41.1594 126.888 40.3676L123.138 41.7604C123.676 43.2086 124.571 44.4859 125.759 45.5965L128.491 42.6755ZM126.899 40.3984C126.586 39.5112 126.437 38.6479 126.437 37.8H122.437C122.437 39.1281 122.672 40.4408 123.127 41.7296L126.899 40.3984ZM126.437 37.8C126.437 36.0823 126.798 34.9153 127.336 34.1294L124.034 31.8706C122.908 33.5167 122.437 35.5497 122.437 37.8H126.437ZM127.315 34.1584C127.998 33.1978 128.769 32.5669 129.622 32.1856L127.988 28.5344C126.409 29.2411 125.1 30.3702 124.055 31.8416L127.315 34.1584ZM129.661 32.1675C130.681 31.6846 131.523 31.496 132.213 31.496V27.496C130.791 27.496 129.361 27.8834 127.949 28.5525L129.661 32.1675ZM132.213 31.496C132.498 31.496 132.962 31.5529 133.648 31.7243L134.618 27.8437C133.768 27.6311 132.952 27.496 132.213 27.496V31.496ZM133.725 31.742C134.245 31.8502 134.846 32.0796 135.534 32.4764L137.532 29.0116C136.556 28.4484 135.557 28.0378 134.541 27.826L133.725 31.742ZM135.612 32.5195C136.166 32.8066 136.732 33.2793 137.292 34.0168L140.478 31.5992C139.63 30.4807 138.628 29.5774 137.454 28.9685L135.612 32.5195ZM140.187 34.3265L141.195 33.4625L138.591 30.4255L137.583 31.2895L140.187 34.3265ZM141.459 30.6995C140.314 29.2591 138.979 28.1189 137.446 27.3324L135.62 30.8916C136.583 31.3851 137.488 32.1329 138.327 33.1885L141.459 30.6995ZM137.446 27.3324C135.995 26.5885 134.491 26.125 132.94 25.9699L132.542 29.9501C133.551 30.051 134.575 30.3555 135.62 30.8916L137.446 27.3324ZM132.947 25.9706C132.234 25.8968 131.568 25.7142 130.939 25.4241L129.263 29.0559C130.298 29.5338 131.392 29.8312 132.535 29.9494L132.947 25.9706ZM130.939 25.4241C130.468 25.2067 129.962 24.8091 129.445 24.12L126.245 26.52C127.072 27.6229 128.07 28.5053 129.263 29.0559L130.939 25.4241ZM129.465 24.147C128.988 23.489 128.51 22.4478 128.096 20.9121L124.234 21.9519C124.716 23.7442 125.358 25.295 126.225 26.493L129.465 24.147ZM128.097 20.9145C127.591 19.0244 126.892 17.3628 125.834 16.2576L122.944 19.0224C123.294 19.3892 123.779 20.2556 124.233 21.9495L128.097 20.9145ZM125.894 16.323C124.985 15.2836 123.79 14.5033 122.312 14.4417L122.146 18.4383C122.204 18.4407 122.449 18.4604 122.884 18.957L125.894 16.323ZM124.039 15.5884C123.911 15.3163 123.753 14.7834 123.637 13.8801L119.669 14.3919C119.809 15.4726 120.035 16.4757 120.419 17.2916L124.039 15.5884ZM123.638 13.8879C123.521 12.955 123.461 11.9505 123.461 10.872H119.461C119.461 12.0975 119.529 13.269 119.668 14.3841L123.638 13.8879ZM123.46 10.926C123.49 9.81535 123.58 8.75875 123.728 7.75499L119.77 7.17301C119.598 8.34525 119.496 9.56065 119.462 10.818L123.46 10.926ZM123.728 7.75499C123.874 6.76266 124.066 6.03744 124.272 5.53326L120.57 4.01873C120.2 4.92256 119.944 5.98933 119.77 7.17301L123.728 7.75499ZM122.264 6.76979C123.486 6.8663 125.203 6.99466 127.412 7.15477L127.702 3.16523C125.495 3.00533 123.788 2.8777 122.578 2.7822L122.264 6.76979ZM127.415 7.15491C129.711 7.31895 132.256 7.4 135.045 7.4V3.4C132.33 3.4 129.883 3.32104 127.699 3.16508L127.415 7.15491ZM135.045 7.4C137.176 7.4 139.247 7.31803 141.256 7.15331L140.93 3.16668C139.035 3.32196 137.074 3.4 135.045 3.4V7.4ZM141.254 7.15353C143.237 6.99357 144.836 6.86567 146.05 6.76979L145.736 2.7822C144.518 2.87833 142.917 3.00643 140.932 3.16647L141.254 7.15353ZM143.951 4.29796C143.389 6.58286 143.168 9.02854 143.271 11.6229L147.267 11.4651C147.178 9.19546 147.373 7.12914 147.835 5.25404L143.951 4.29796ZM143.272 11.6491C143.406 14.203 143.775 16.7823 144.376 19.3857L148.274 18.4863C147.723 16.0977 147.388 13.749 147.266 11.4389L143.272 11.6491ZM144.376 19.3857C144.968 21.948 145.675 24.4171 146.5 26.792L150.278 25.48C149.503 23.2469 148.834 20.916 148.274 18.4863L144.376 19.3857ZM150.389 26.1264L150.341 16.1424L146.341 16.1616L146.389 26.1456L150.389 26.1264ZM148.341 14.152H146.997V18.152H148.341V14.152ZM148.975 15.8579C148.639 13.5986 148.54 11.6009 148.657 9.85304L144.665 9.58696C144.526 11.6791 144.651 13.9694 145.019 16.4461L148.975 15.8579ZM148.657 9.85304C148.779 8.01552 149.006 6.4955 149.319 5.27167L145.443 4.28033C145.052 5.8085 144.799 7.58447 144.665 9.58696L148.657 9.85304ZM147.152 6.76282C147.992 6.85981 148.88 6.95666 149.815 7.05338L150.227 3.07462C149.306 2.97933 148.434 2.88418 147.61 2.78918L147.152 6.76282ZM149.822 7.05407C150.832 7.15505 152.071 7.2371 153.532 7.30203L153.71 3.30597C152.291 3.24289 151.13 3.16495 150.22 3.07393L149.822 7.05407ZM153.532 7.30203C155.014 7.36786 156.902 7.4 159.189 7.4V3.4C156.932 3.4 155.108 3.36813 153.71 3.30597L153.532 7.30203ZM159.189 7.4C160.192 7.4 161.316 7.36661 162.558 7.30124L162.348 3.30676C161.158 3.36938 160.106 3.4 159.189 3.4V7.4ZM162.606 7.29811C163.857 7.20191 165.076 7.10569 166.263 7.00946L165.939 3.02254C164.758 3.11831 163.545 3.21409 162.3 3.30989L162.606 7.29811ZM166.258 7.0098C167.475 6.91376 168.484 6.8337 169.285 6.76963L168.965 2.78237C168.166 2.84629 167.159 2.92623 165.944 3.0222L166.258 7.0098ZM167.274 5.53327C167.471 6.01389 167.647 6.71781 167.763 7.69768L171.735 7.23032C171.595 6.03418 171.355 4.9461 170.976 4.01873L167.274 5.53327ZM167.77 7.75499C167.915 8.73963 167.989 9.77803 167.989 10.872H171.989C171.989 9.59797 171.903 8.36437 171.728 7.17301L167.77 7.75499ZM167.989 10.872C167.989 11.9505 167.929 12.955 167.812 13.8879L171.782 14.3841C171.921 13.269 171.989 12.0975 171.989 10.872H167.989ZM167.813 13.8801C167.697 14.7834 167.539 15.3163 167.411 15.5884L171.031 17.2916C171.415 16.4757 171.641 15.4726 171.781 14.3919L167.813 13.8801ZM169.154 14.4411C167.441 14.4982 166.102 15.3952 165.277 16.8397L168.749 18.8243C168.873 18.608 168.972 18.5313 169.016 18.5039C169.053 18.4803 169.124 18.4443 169.288 18.4389L169.154 14.4411ZM165.277 16.8397C164.63 17.9708 164.143 19.3955 163.768 21.0332L167.666 21.9268C167.995 20.4925 168.372 19.4852 168.749 18.8243L165.277 16.8397ZM163.761 21.0638C163.447 22.5365 163.054 24.2063 162.579 26.0752L166.455 27.0608C166.94 25.1537 167.347 23.4315 167.673 21.8962L163.761 21.0638ZM162.563 26.1431C161.787 29.7093 160.792 32.7015 159.599 35.1472L163.195 36.9008C164.562 34.0985 165.647 30.7867 166.471 26.9929L162.563 26.1431ZM159.599 35.1472C158.43 37.5445 156.951 39.4516 155.18 40.9136L157.726 43.9984C159.987 42.1324 161.804 39.7515 163.195 36.9008L159.599 35.1472ZM155.18 40.9136C153.43 42.3581 151.198 43.4575 148.422 44.1662L149.412 48.0418C152.652 47.2145 155.444 45.8819 157.726 43.9984L155.18 40.9136ZM148.398 44.1726C145.643 44.9132 142.197 45.304 138.021 45.304V49.304C142.421 49.304 146.239 48.8948 149.436 48.0354L148.398 44.1726Z" fill="#3369F3"/>
</svg>
