<svg width="68" height="78" viewBox="0 0 68 78" fill="none" xmlns="http://www.w3.org/2000/svg">
<path d="M34 7.80005C49.0144 7.80005 61.2 21.7776 61.2 39L61.2 70.2L6.80001 70.2L6.80001 39C6.80001 21.7776 18.9856 7.80005 34 7.80005Z" fill="#FF0000"/>
<ellipse cx="8.19091" cy="13.2203" rx="8.19091" ry="13.2203" transform="matrix(-1 0 0 1 31.8364 20.4915)" fill="white"/>
<ellipse cx="3.27636" cy="6.61017" rx="3.27636" ry="6.61017" transform="matrix(-1 0 0 1 31.8364 29.3051)" fill="#163BF3"/>
<ellipse cx="8.19091" cy="13.2203" rx="8.19091" ry="13.2203" transform="matrix(-1 0 0 1 52.8545 20.4915)" fill="white"/>
<ellipse cx="3.27636" cy="6.61017" rx="3.27636" ry="6.61017" transform="matrix(-1 0 0 1 52.8545 29.3051)" fill="#163BF3"/>
</svg>
